<?xml version="1.0" encoding="utf-8"?>
<!-- Generator: Adobe Illustrator 19.1.0, SVG Export Plug-In . SVG Version: 6.00 Build 0)  -->
<svg version="1.1" id="Ebene_1" xmlns="http://www.w3.org/2000/svg" xmlns:xlink="http://www.w3.org/1999/xlink" x="0px" y="0px"
	 viewBox="0 0 699.5 225.5" style="enable-background:new 0 0 699.5 225.5;" xml:space="preserve">
<style type="text/css">
	.st0{fill:#C18B1A;}
</style>
<g>
	<path class="st0" d="M53.3,82.2l-9.1,21.4h-21L67.2,0.2H82l42.5,103.4h-21.1l-8.7-21.4H53.3z M74.4,29.8L59.7,66.2h28.9L74.4,29.8z
		"/>
	<path class="st0" d="M136.6,0h13.7l61.6,70.5V2.3h19.7v103.2h-13.7l-61.6-70.4v68.5h-19.7V0z"/>
	<path class="st0" d="M353,49.3c-0.2,15.9-1.5,23.1-5.8,31.3c-8.7,16.4-23.8,25.2-43.6,25.2c-31,0-53.1-21.9-53.1-52.4
		c0-31,22.5-53.5,53.6-53.5c19.1,0,34,8.2,43.6,23.8l-17.3,9.3c-6.1-10-14.9-15-26.4-15c-19.1,0-33.1,14.9-33.1,35.4
		c0,19.9,14,34.5,33.1,34.5c14.4,0,25.1-8.5,26.6-21.4h-23.8V49.3H353z"/>
	<path class="st0" d="M385.2,19.4v22.5h34.9v17.2h-34.9v27.3h36.3v17.2h-56V2.3h56v17.2H385.2z"/>
	<path class="st0" d="M440.6,2.3h25.1c11.7,0,19.6,2,24.8,6.1c5.6,4.4,9.1,12.3,9.1,20.7c0,5.5-1.4,10.9-3.8,14.4
		c-1.7,2.3-3.3,3.6-7.3,6.1c6.8,1.5,10,3,13.2,6.4c4.5,4.5,7.3,11.7,7.3,19.1c0,8-3.2,15.6-9,20.8c-5.9,5.3-14,7.7-25.2,7.7h-34.2
		V2.3z M466,44.5c10.2,0,15.3-4.4,15.3-13.2c0-8.7-5.2-13.1-15-13.1h-5.9v26.3H466z M468.8,87.6c13.4,0,19.7-4.6,19.7-14
		c0-4.9-2.1-9-5.9-11.2c-3.5-2.3-6.7-2.9-14.9-2.9h-7.4v28.1H468.8z"/>
	<path class="st0" d="M629.5,53c0,29.9-23.8,52.8-54.7,52.8c-30.5,0-53.6-23.1-53.6-53.6c0-29,24.1-52.2,54.4-52.2
		S629.5,23.2,629.5,53z M541.6,52.4c0,19.9,14.9,35.4,33.9,35.4c18.7,0,33.7-15.6,33.7-34.9c0-19.3-15-34.8-33.9-34.8
		C556.8,18.1,541.6,33.6,541.6,52.4z"/>
	<path class="st0" d="M657,103.6V19.4h-22.6V2.3h65.1v17.2h-22.8v84.1H657z"/>
</g>
<g>
	<g>
		<path class="st0" d="M641.5,143.4l9.1-21.4h21l-43.9,103.4h-14.9L570.3,122h21.1l8.7,21.4H641.5z M620.4,195.7l14.7-36.4h-28.9
			L620.4,195.7z"/>
		<path class="st0" d="M561.3,225.5h-13.7L486,155.1v68.2h-19.7V120h13.7l61.6,70.4V122h19.7V225.5z"/>
		<path class="st0" d="M348.5,176.2c0.2-15.9,1.5-23.1,5.8-31.3c8.7-16.4,23.8-25.2,43.6-25.2c31,0,53.1,21.9,53.1,52.4
			c0,31-22.5,53.5-53.6,53.5c-19.1,0-34-8.2-43.6-23.8l17.3-9.3c6.1,10,14.9,15,26.4,15c19.1,0,33.1-14.9,33.1-35.4
			c0-19.9-14-34.5-33.1-34.5c-14.4,0-25.1,8.5-26.6,21.4h23.8v17.2H348.5z"/>
		<path class="st0" d="M315,206.1v-22.5H280v-17.2H315v-27.3h-36.3V122h56v101.3h-56v-17.2H315z"/>
		<path class="st0" d="M255.9,223.2h-25.1c-11.7,0-19.6-2-24.8-6.1c-5.6-4.4-9.1-12.3-9.1-20.7c0-5.5,1.4-10.9,3.8-14.4
			c1.7-2.3,3.3-3.6,7.3-6.1c-6.8-1.5-10-3-13.2-6.4c-4.6-4.5-7.3-11.7-7.3-19.1c0-8,3.2-15.6,9-20.8c5.9-5.3,14-7.7,25.2-7.7h34.2
			V223.2z M227.6,137.9c-13.4,0-19.7,4.6-19.7,14c0,4.9,2.1,9,5.9,11.2c3.5,2.3,6.7,2.9,14.9,2.9h7.4v-28.1H227.6z M230.5,181
			c-10.2,0-15.3,4.4-15.3,13.2c0,8.7,5.2,13.1,15,13.1h5.9V181H230.5z"/>
		<path class="st0" d="M70,172.5c0-29.9,23.8-52.8,54.7-52.8c30.5,0,53.6,23.1,53.6,53.6c0,29-24.1,52.2-54.4,52.2
			S70,202.3,70,172.5z M157.9,173.1c0-19.9-14.9-35.4-33.9-35.4c-18.7,0-33.7,15.6-33.7,34.9c0,19.3,15,34.8,33.9,34.8
			C142.7,207.4,157.9,191.9,157.9,173.1z"/>
		<path class="st0" d="M42.5,122v84.1h22.6v17.2H0v-17.2h22.8V122H42.5z"/>
	</g>
</g>
</svg>
