<?xml version="1.0" encoding="utf-8"?>
<!-- Generator: Adobe Illustrator 19.1.0, SVG Export Plug-In . SVG Version: 6.00 Build 0)  -->
<svg version="1.1" id="Ebene_1" xmlns="http://www.w3.org/2000/svg" xmlns:xlink="http://www.w3.org/1999/xlink" x="0px" y="0px"
	 viewBox="0 0 237.2 128.4" style="enable-background:new 0 0 237.2 128.4;" xml:space="preserve">
<style type="text/css">
	.st0{fill:#C18B1A;}
</style>
<path class="st0" d="M199.5,26.4V1.3h-11.6v59.3h11.6V35.4l1.4-1.4L222,60.6h15.2l-26.4-31.9l25.1-27.4h-14.6L199.5,26.4z
	 M120.6,60.6h11.6V20.5l36.1,41.2h8V1.3h-11.6v39.9L128.6,0l-8,0V60.6z M110.2,11.4v-10H77.4v59.3h32.8v-10H88.9v-16h20.4v-10H88.9
	V11.4H110.2z M31.2,50.6V11.4h3.1c7.6,0,12,1.3,15.8,4.8c4.1,3.6,6.4,9,6.4,14.8s-2.4,11.4-6.3,14.9c-3.7,3.3-8.4,4.7-15.9,4.7H31.2
	z M19.7,60.6h16.9c9,0,15.5-2,21.2-6.8c6.8-5.6,10.8-14,10.8-22.8c0-9-3.9-17.3-10.6-22.8c-5.6-4.6-12.5-6.8-21.2-6.8h-17V60.6z"/>
<path class="st0" d="M0,117l0,10h31.4V67.8H19.8v26H1.2v10h18.6V117H0z M43.4,117v10h31.4V67.8H63.2v26H44.6v10h18.6V117H43.4z
	 M116.2,117.8c-11,0-19.8-9.1-19.8-20.3c0-11.3,8.8-20.4,19.7-20.4c11.1,0,19.8,9.1,19.8,20.7C136,108.7,127.1,117.8,116.2,117.8
	 M116.1,128.4c17.7,0,31.8-13.6,31.8-30.6c0-17.9-13.5-31.4-31.4-31.4c-18,0-32,13.4-32,30.9C84.5,114.8,98.4,128.4,116.1,128.4
	 M164.8,67.8V117h-13.3v10h38.1v-10h-13.2V67.8H164.8z M198.3,121.4c5,4.4,10.8,6.6,17.4,6.6c10.7,0,18.5-7.2,18.5-17.2
	c0-7.8-3.9-12.2-14.6-16c-4.5-1.6-6.9-2.7-8-3.4c-2.3-1.5-3.5-3.6-3.5-6.1c0-5,3.7-8.4,9.2-8.4c5.3,0,9.8,2.8,12.4,7.9l7.5-7.2
	c-5.3-7.7-11.7-11.3-20.4-11.3c-12.3,0-20.6,7.9-20.6,19.6c0,5.3,1.8,9.5,5.2,12.4c2.7,2.3,5.2,3.6,11.8,6c6.9,2.6,9,4.3,9,7.5
	c0,3.6-3.6,6.6-8.4,6.6c-3.7,0-6.6-1.4-9.6-4.8L198.3,121.4z"/>
</svg>
