<?xml version="1.0" encoding="utf-8"?>
<!-- Generator: Adobe Illustrator 19.1.0, SVG Export Plug-In . SVG Version: 6.00 Build 0)  -->
<svg version="1.1" id="Ebene_1" xmlns="http://www.w3.org/2000/svg" xmlns:xlink="http://www.w3.org/1999/xlink" x="0px" y="0px"
	 viewBox="0 0 436.8 130.2" style="enable-background:new 0 0 436.8 130.2;" xml:space="preserve">
<style type="text/css">
	.st0{fill:#C18B1A;}
	.st1{fill:#00A167;}
</style>
<g>
	<path class="st0" d="M199.9,26.4V1.3h-11.6v59.3h11.6V35.4l1.4-1.4l21.1,26.7h15.2l-26.4-31.9l25.1-27.4h-14.6L199.9,26.4z
		 M121,60.6h11.6V20.5l36.1,41.2h8V1.3h-11.6v39.9L129,0l-8,0V60.6z M110.6,11.4v-10H77.8v59.3h32.8v-10H89.3v-16h20.4v-10H89.3
		V11.4H110.6z M31.7,50.6V11.4h3.1c7.6,0,12,1.3,15.8,4.8c4.1,3.6,6.4,9,6.4,14.8s-2.4,11.4-6.3,14.9c-3.7,3.3-8.4,4.7-15.9,4.7
		H31.7z M20.1,60.6H37c9,0,15.5-2,21.2-6.8c6.8-5.6,10.8-14,10.8-22.8c0-9-3.9-17.3-10.6-22.8c-5.6-4.6-12.5-6.8-21.2-6.8h-17V60.6z
		"/>
	<path class="st0" d="M0.4,117v10h31.4V67.8H20.2v26H1.7v10h18.6V117H0.4z M43.8,117v10h31.4V67.8H63.6v26H45v10h18.6V117H43.8z
		 M116.7,117.8c-11,0-19.8-9.1-19.8-20.3c0-11.3,8.8-20.4,19.7-20.4c11.1,0,19.8,9.1,19.8,20.7C136.4,108.7,127.5,117.8,116.7,117.8
		 M116.5,128.4c17.7,0,31.8-13.6,31.8-30.6c0-17.9-13.5-31.4-31.4-31.4c-18,0-32,13.4-32,30.9C84.9,114.8,98.8,128.4,116.5,128.4
		 M165.2,67.8V117h-13.3v10H190v-10h-13.2V67.8H165.2z M198.7,121.4c5,4.4,10.8,6.6,17.4,6.6c10.7,0,18.5-7.2,18.5-17.2
		c0-7.8-3.9-12.2-14.6-16c-4.5-1.6-6.9-2.7-8-3.4c-2.3-1.5-3.5-3.6-3.5-6.1c0-5,3.7-8.4,9.2-8.4c5.3,0,9.8,2.8,12.4,7.9l7.5-7.2
		c-5.3-7.7-11.7-11.3-20.4-11.3c-12.3,0-20.6,7.9-20.6,19.6c0,5.3,1.8,9.5,5.2,12.4c2.7,2.3,5.2,3.6,11.8,6c6.9,2.6,9,4.3,9,7.5
		c0,3.6-3.6,6.6-8.4,6.6c-3.7,0-6.6-1.4-9.6-4.8L198.7,121.4z"/>
</g>
<g>
	<path class="st1" d="M258.9,5.1c0.1-1.2-0.2-2.4-2.3-2.4c-3.3,0-4.4,3.4-4.4,5.6c0,2.5,1.2,3.6,2.9,3.6c1.4,0,1.6-0.3,1.7-0.8
		l0.5-2.2c0.1-0.5,0-0.7-0.2-0.7l-1-0.1l0.1-0.4h3.8l-0.1,0.4l-0.6,0.1c-0.2,0-0.3,0.2-0.5,0.7l-0.6,2.9c-0.8,0.3-2,0.6-3,0.6
		c-2.8,0-4.5-1.3-4.5-4.3c0-1.3,0.4-2.8,1.3-4c1-1.2,2.5-2,4.7-2c1.2,0,2.3,0.2,3.2,0.7l-0.5,2.2H258.9z"/>
	<path class="st1" d="M266.3,10.3c-1,1.6-2.2,2.1-3.4,2.1c-0.9,0-2.1-0.4-2.1-2.3c0-1.2,0.4-2.5,1.2-3.4c0.8-1,1.8-1.5,3-1.5
		c1.2,0,1.7,0.7,1.7,1.4c0,1.9-3,2.5-4.5,2.7c0,0.1,0,0.5,0,0.5c0,1.1,0.3,1.9,1.3,1.9c1.1,0,1.9-0.9,2.4-1.6L266.3,10.3z
		 M265.4,6.5c0-0.5-0.3-0.8-0.8-0.8c-1.1,0-2.1,1.4-2.4,3.1C264.1,8.5,265.4,7.8,265.4,6.5z"/>
	<path class="st1" d="M275.3,1.7L275.3,1.7l-2.2,9.2c-0.1,0.4-0.1,0.8,0.1,0.8c0.4,0,1-1,1.3-1.5l0.4,0.3c-0.5,1.1-1.3,2-2.4,2
		c-0.7,0-0.9-0.6-0.7-1.6c0.1-0.5,0.3-1,0.4-1.5h0c-0.8,1.5-2,3.1-3.7,3.1c-1.2,0-1.4-1-1.4-1.9c0-1.7,1.5-5.4,4.8-5.4
		c0.5,0,0.9,0.1,1.2,0.3l0.6-2.4c0.1-0.5,0.1-0.5-0.3-0.6l-0.8-0.1l0.1-0.3L275.3,1.7z M268.7,10.6c0,0.6,0.2,1,0.7,1
		c1.4,0,3.1-3.2,3.5-4.6c0.1-0.4,0.2-0.7,0.3-1.1c-0.2-0.1-0.5-0.3-0.9-0.3C269.9,5.7,268.7,9.1,268.7,10.6L268.7,10.6z"/>
	<path class="st1" d="M282.9,5.3l-1.5,5.6c-0.1,0.4-0.1,0.8,0.1,0.8c0.4,0,1-1,1.3-1.5l0.4,0.2c-0.5,1.1-1.3,2.1-2.4,2.1
		c-0.8,0-0.9-0.6-0.6-1.6l0.4-1.5h0c-0.8,1.4-2.1,3.1-3.6,3.1c-1,0-1.3-0.7-1.3-1.7c0-1.9,1.5-5.6,4.9-5.6c0.5,0,0.9,0.1,1.1,0.3
		l0.1-0.2H282.9z M280.6,5.7c-2.2,0-3.6,3.4-3.6,5c0,0.6,0.1,1,0.6,1c1.3,0,3.1-3.2,3.5-4.6c0.1-0.4,0.2-0.8,0.3-1.1
		C281.2,5.8,280.9,5.7,280.6,5.7z M279.3,2.3c0.5,0,0.8,0.4,0.8,0.8C280,3.6,279.6,4,279.1,4s-0.8-0.3-0.8-0.8S278.8,2.3,279.3,2.3
		L279.3,2.3z M282.1,2.3c0.5,0,0.8,0.4,0.7,0.8c0,0.5-0.4,0.8-0.9,0.8c-0.5,0-0.8-0.3-0.8-0.8S281.6,2.3,282.1,2.3L282.1,2.3z"/>
	<path class="st1" d="M289.4,10.3c-1,1.6-2.2,2.1-3.3,2.1c-1,0-2-0.6-2-2.3c0-2.3,1.6-5,4.1-5c1.1,0,1.8,0.6,1.8,1.3
		c0,0.5-0.5,0.8-0.9,0.8c-0.3,0-0.4-0.2-0.4-0.4c-0.1-0.8-0.4-1.1-0.8-1.1c-1.3,0-2.3,2.4-2.3,4.2c0,1,0.2,1.8,1.2,1.8
		c0.9,0,1.8-0.9,2.4-1.7L289.4,10.3z"/>
	<path class="st1" d="M297.8,10.4c-0.5,1.1-1.3,2-2.3,2c-0.8,0-1-0.6-0.8-1.6l1.2-4c0.2-0.6,0-1-0.4-1c-1.2,0-2.5,2.1-3,3.3
		c-0.3,0.9-0.6,1.6-1,3l-1.3,0.2l2.1-9.3c0.1-0.6,0.1-0.6-0.3-0.7l-0.8-0.1l0.1-0.3l2.6-0.3l0.1,0.1l-1.6,6.4h0c0.9-1.7,2.4-3,3.7-3
		c1.1,0,1.3,1,1,2.1l-1.1,3.6c-0.1,0.4-0.1,0.8,0.1,0.8c0.4,0,1-1,1.3-1.5L297.8,10.4z"/>
	<path class="st1" d="M301.6,5.9l-1.2,5.1c-0.1,0.3-0.1,0.6,0.2,0.6c0.4,0,1.2-0.9,1.5-1.5l0.3,0.3c-0.6,1.1-1.5,2-2.6,2
		c-0.7,0-0.9-0.6-0.7-1.4l1.3-5.1h-1.2l0.2-0.6h1.1l0.3-1.3l1.3-0.8l0.2,0.1l-0.5,1.9h1.7l-0.2,0.6H301.6z"/>
	<path class="st1" d="M303.4,12.4l1.5-5.8C305,6.2,305,6,304.6,6l-0.9-0.1l0.1-0.4l2.6-0.4l0.1,0.1l-0.9,2.9h0c0.9-1.7,2.2-3,3.6-3
		c1.2,0,1.3,1,1,2.1l-1.1,3.6c-0.1,0.4-0.2,0.8,0.1,0.8c0.4,0,1-1,1.3-1.5l0.3,0.3c-0.5,1.1-1.3,2-2.4,2c-0.8,0-1-0.6-0.7-1.4
		l1.2-4.1c0.2-0.5,0-1-0.5-1c-1.1,0-2.4,2.1-2.9,3.3c-0.4,0.9-0.6,1.6-1.1,3L303.4,12.4z"/>
	<path class="st1" d="M315.4,10.4c-0.5,1.1-1.3,2-2.3,2c-0.8,0-1-0.6-0.8-1.4l1.2-4.4c0.1-0.5,0.1-0.6-0.3-0.6l-0.8-0.1l0.1-0.3
		l2.6-0.4l0.1,0.1l-1.5,5.6c-0.1,0.4-0.1,0.8,0.1,0.8c0.4,0,1-1,1.3-1.5L315.4,10.4z M314.9,2.3c0.4,0,0.8,0.2,0.8,0.8
		c0,0.6-0.4,1-0.9,1c-0.4,0-0.8-0.3-0.8-0.8C314,2.8,314.3,2.3,314.9,2.3L314.9,2.3z"/>
	<path class="st1" d="M319.4,5.1c1.3,0,1.7,0.8,1.7,1.2c0,0.4-0.4,0.6-0.6,0.6c-0.2,0-0.3-0.1-0.4-0.3c-0.3-0.6-0.6-1-1.1-1
		c-0.5,0-0.9,0.4-0.9,0.9c0,0.5,0.1,0.8,1,1.5c1,0.8,1.4,1.2,1.4,2.1c0,1.1-1,2.2-2.6,2.2c-1.4,0-2-0.8-2-1.4c0-0.3,0.3-0.7,0.7-0.7
		c0.2,0,0.3,0.1,0.4,0.4c0.2,0.7,0.8,1.1,1.3,1.1c0.5,0,1-0.3,1-1c0-0.5-0.3-1-1-1.6c-0.7-0.6-1.3-1.1-1.3-1.9
		C317,6.1,317.9,5.1,319.4,5.1L319.4,5.1z"/>
	<path class="st1" d="M324.7,5.9l-1.2,5.1c-0.1,0.3-0.1,0.6,0.2,0.6c0.4,0,1.2-0.9,1.5-1.5l0.3,0.3c-0.6,1.1-1.5,2-2.6,2
		c-0.7,0-0.9-0.6-0.7-1.4l1.3-5.1h-1.2l0.2-0.6h1.1l0.3-1.3l1.3-0.8l0.2,0.1l-0.5,1.9h1.7l-0.2,0.6H324.7z"/>
	<path class="st1" d="M326.6,12.4l1.1-5c0.2-1,0.3-1.4,0-1.4l-1-0.1l0.1-0.3l2.4-0.4l0.1,0.1l-0.6,2.6h0.1c0.8-1.6,1.7-2.7,2.5-2.7
		c0.5,0,0.7,0.2,0.6,0.6c0,0.4-0.4,1-0.7,1c-0.5,0-0.4-0.4-0.8-0.4c-0.4,0-1,1-1.6,2.5c-0.4,1.1-0.7,2.2-1,3.4L326.6,12.4z"/>
	<path class="st1" d="M339.1,5.3l-1.5,5.6c-0.1,0.4-0.1,0.8,0.1,0.8c0.4,0,1-1,1.3-1.5l0.4,0.2c-0.5,1.1-1.3,2.1-2.4,2.1
		c-0.8,0-0.9-0.6-0.6-1.6l0.4-1.5h0c-0.8,1.4-2.1,3.1-3.6,3.1c-1,0-1.3-0.7-1.3-1.7c0-1.9,1.5-5.6,4.9-5.6c0.5,0,0.9,0.1,1.1,0.3
		l0.1-0.2H339.1z M336.8,5.7c-2.2,0-3.6,3.4-3.6,5c0,0.6,0.1,1,0.6,1c1.3,0,3.1-3.2,3.5-4.6c0.1-0.4,0.2-0.8,0.3-1.1
		C337.5,5.8,337.2,5.7,336.8,5.7z"/>
	<path class="st1" d="M343.6,10.4c-0.5,1.1-1.3,2-2.3,2c-0.8,0-1-0.6-0.8-1.4l1.2-4.4c0.1-0.5,0.1-0.6-0.3-0.6l-0.8-0.1l0.1-0.3
		l2.6-0.4l0.1,0.1l-1.5,5.6c-0.1,0.4-0.1,0.8,0.1,0.8c0.4,0,1-1,1.3-1.5L343.6,10.4z M343.2,2.3c0.4,0,0.8,0.2,0.8,0.8
		c0,0.6-0.4,1-0.9,1c-0.4,0-0.8-0.3-0.8-0.8C342.2,2.8,342.5,2.3,343.2,2.3L343.2,2.3z"/>
	<path class="st1" d="M344.6,12.4l1.5-5.8c0.1-0.5,0.1-0.6-0.2-0.7L345,5.9l0.1-0.4l2.6-0.4l0.1,0.1l-0.9,2.9h0c0.9-1.7,2.2-3,3.6-3
		c1.2,0,1.3,1,1,2.1l-1.1,3.6c-0.1,0.4-0.2,0.8,0.1,0.8c0.4,0,1-1,1.3-1.5l0.3,0.3c-0.5,1.1-1.3,2-2.4,2c-0.8,0-1-0.6-0.7-1.4
		l1.2-4.1c0.2-0.5,0-1-0.5-1c-1.1,0-2.4,2.1-2.9,3.3c-0.4,0.9-0.6,1.6-1.1,3L344.6,12.4z"/>
	<path class="st1" d="M358.6,10.3c-1,1.6-2.2,2.1-3.4,2.1c-0.9,0-2.1-0.4-2.1-2.3c0-1.2,0.4-2.5,1.2-3.4c0.8-1,1.8-1.5,3-1.5
		c1.2,0,1.7,0.7,1.7,1.4c0,1.9-3,2.5-4.5,2.7c0,0.1,0,0.5,0,0.5c0,1.1,0.3,1.9,1.3,1.9c1.1,0,1.9-0.9,2.4-1.6L358.6,10.3z
		 M357.7,6.5c0-0.5-0.3-0.8-0.8-0.8c-1.1,0-2.1,1.4-2.4,3.1C356.4,8.5,357.7,7.8,357.7,6.5z"/>
	<path class="st1" d="M359.8,12.4l1.1-5c0.2-1,0.3-1.4,0-1.4l-1-0.1l0.1-0.3l2.4-0.4l0.1,0.1l-0.6,2.6h0.1c0.8-1.6,1.7-2.7,2.5-2.7
		c0.5,0,0.7,0.2,0.6,0.6c0,0.4-0.4,1-0.7,1c-0.5,0-0.4-0.4-0.8-0.4c-0.4,0-1,1-1.6,2.5c-0.4,1.1-0.7,2.2-1,3.4L359.8,12.4z"/>
	<path class="st1" d="M368.9,10.4c-0.5,1.1-1.3,2-2.3,2c-0.8,0-1-0.6-0.8-1.4l1.2-4.4c0.1-0.5,0.1-0.6-0.3-0.6l-0.8-0.1l0.1-0.3
		l2.6-0.4l0.1,0.1l-1.5,5.6c-0.1,0.4-0.1,0.8,0.1,0.8c0.4,0,1-1,1.3-1.5L368.9,10.4z M368.5,2.3c0.4,0,0.8,0.2,0.8,0.8
		c0,0.6-0.4,1-0.9,1c-0.4,0-0.8-0.3-0.8-0.8C367.6,2.8,367.9,2.3,368.5,2.3L368.5,2.3z"/>
	<path class="st1" d="M369.9,12.4l1.5-5.8c0.1-0.5,0.1-0.6-0.2-0.7l-0.9-0.1l0.1-0.4l2.6-0.4l0.1,0.1l-0.9,2.9h0
		c0.9-1.7,2.2-3,3.6-3c1.2,0,1.3,1,1,2.1l-1.1,3.6c-0.1,0.4-0.2,0.8,0.1,0.8c0.4,0,1-1,1.3-1.5l0.3,0.3c-0.5,1.1-1.3,2-2.4,2
		c-0.8,0-1-0.6-0.7-1.4l1.2-4.1c0.2-0.5,0-1-0.5-1c-1.1,0-2.4,2.1-2.9,3.3c-0.4,0.9-0.6,1.6-1.1,3L369.9,12.4z"/>
	<path class="st1" d="M251.7,21.4h2.8c0.4,2.2,1.2,5.8,1.5,7.5h0c1.6-2.3,3.8-5.6,5-7.5h2.8l-0.1,0.4l-0.8,0.1
		c-0.4,0-0.5,0.2-0.6,0.7l-1.7,7.4c-0.1,0.5,0,0.7,0.3,0.7l0.8,0.1l-0.1,0.4h-3.9l0.1-0.4l0.8-0.1c0.3,0,0.5-0.2,0.6-0.7l1.7-7.4h0
		c-1.5,2.4-4.1,6.3-5.5,8.7H255c-0.4-2.2-1.2-6.9-1.6-8.8h0c-1.1,5-1.5,6.7-1.6,7.6c0,0.4,0.2,0.6,0.6,0.6l0.6,0l-0.1,0.4h-3.3
		l0.1-0.4l0.5,0c0.4,0,0.7-0.2,0.8-0.6c0.3-0.9,0.8-2.9,1.9-7.6c0.1-0.5,0-0.6-0.3-0.7l-0.8-0.1L251.7,21.4z"/>
	<path class="st1" d="M270.3,24.3l-1.5,5.6c-0.1,0.4-0.1,0.8,0.1,0.8c0.4,0,1-1,1.3-1.5l0.4,0.2c-0.5,1.1-1.3,2.1-2.4,2.1
		c-0.8,0-0.9-0.6-0.6-1.6l0.4-1.5h0c-0.8,1.4-2.1,3.1-3.6,3.1c-1,0-1.3-0.7-1.3-1.7c0-1.9,1.5-5.6,4.9-5.6c0.5,0,0.9,0.1,1.1,0.3
		l0.1-0.2H270.3z M268,24.7c-2.2,0-3.6,3.4-3.6,5c0,0.6,0.1,1,0.6,1c1.3,0,3.1-3.2,3.5-4.6c0.1-0.4,0.2-0.8,0.3-1.1
		C268.6,24.8,268.3,24.7,268,24.7z"/>
	<path class="st1" d="M271.5,31.4l1.1-5c0.2-1,0.3-1.4,0-1.4l-1-0.1l0.1-0.3l2.4-0.4l0.1,0.1l-0.6,2.6h0.1c0.8-1.6,1.7-2.7,2.5-2.7
		c0.5,0,0.7,0.2,0.6,0.6c0,0.4-0.4,1-0.7,1c-0.5,0-0.4-0.4-0.8-0.4c-0.4,0-1,1-1.6,2.5c-0.4,1.1-0.7,2.2-1,3.4L271.5,31.4z"/>
	<path class="st1" d="M282.8,25.2c0.2,0.2,0.2,0.7,0.2,1.1c0,1.5-1,2.5-3,2.5c-0.3,0-0.6,0-0.8-0.1c-0.3,0.1-0.6,0.3-0.6,0.5
		c0,0.2,0.1,0.4,0.7,0.6c0.6,0.2,1.3,0.4,2,0.5c1,0.3,1.6,0.8,1.6,1.8c0,1.2-1.1,2.5-3.5,2.5c-1.9,0-3.3-0.9-3.3-2.1
		c0-0.8,0.5-1.5,2-1.8v0c-0.6-0.2-0.8-0.7-0.8-1c0-0.5,0.5-1,1.3-1.1v0c-0.4-0.2-1.1-0.6-1.1-1.8c0-0.9,0.6-2.5,3-2.5
		c0.7,0,1.2,0.1,1.7,0.4l1.8-0.3l0.1,0.1l-0.5,0.8H282.8z M279.7,34.2c1.2,0,1.9-0.5,1.9-1.4c0-0.5-0.3-0.9-1-1.2
		c-0.3-0.1-1.3-0.4-1.8-0.5c-0.6,0.1-1.5,0.4-1.5,1.4C277.4,33.6,278.5,34.2,279.7,34.2L279.7,34.2z M280.7,24.6
		c-1.2,0-1.7,1.4-1.7,2.3c0,0.9,0.4,1.4,1.1,1.4c1,0,1.6-1.1,1.6-2.4C281.7,25,281.2,24.6,280.7,24.6L280.7,24.6z"/>
	<path class="st1" d="M284.3,31.4l1.1-5c0.2-1,0.3-1.4,0-1.4l-1-0.1l0.1-0.3l2.4-0.4l0.1,0.1l-0.6,2.6h0.1c0.8-1.6,1.7-2.7,2.5-2.7
		c0.5,0,0.7,0.2,0.6,0.6c0,0.4-0.4,1-0.7,1c-0.5,0-0.4-0.4-0.8-0.4c-0.4,0-1,1-1.6,2.5c-0.4,1.1-0.7,2.2-1,3.4L284.3,31.4z"/>
	<path class="st1" d="M293.5,29.4c-0.5,1.1-1.3,2-2.3,2c-0.8,0-1-0.6-0.8-1.4l1.2-4.4c0.1-0.5,0.1-0.6-0.3-0.6l-0.8-0.1l0.1-0.3
		l2.6-0.4l0.1,0.1l-1.5,5.6c-0.1,0.4-0.1,0.8,0.1,0.8c0.4,0,1-1,1.3-1.5L293.5,29.4z M293,21.3c0.4,0,0.8,0.2,0.8,0.8
		c0,0.6-0.4,1-0.9,1c-0.4,0-0.8-0.3-0.8-0.8C292.1,21.8,292.4,21.3,293,21.3L293,21.3z"/>
	<path class="st1" d="M297.4,24.9l-1.2,5.1c-0.1,0.3-0.1,0.6,0.2,0.6c0.4,0,1.2-0.9,1.5-1.5l0.3,0.3c-0.6,1.1-1.5,2-2.6,2
		c-0.7,0-0.9-0.6-0.7-1.4l1.3-5.1h-1.2l0.2-0.6h1.1l0.3-1.3l1.3-0.8l0.2,0.1l-0.5,1.9h1.7l-0.2,0.6H297.4z"/>
	<path class="st1" d="M303.8,21.4h2.8c0.4,2.2,1.2,5.8,1.5,7.5h0c1.6-2.3,3.8-5.6,5-7.5h2.8l-0.1,0.4l-0.8,0.1
		c-0.4,0-0.5,0.2-0.6,0.7l-1.7,7.4c-0.1,0.5,0,0.7,0.3,0.7l0.8,0.1l-0.1,0.4h-3.9l0.1-0.4l0.8-0.1c0.3,0,0.5-0.2,0.6-0.7l1.7-7.4h0
		c-1.5,2.4-4.1,6.3-5.5,8.7h-0.4c-0.4-2.2-1.2-6.9-1.6-8.8h0c-1.1,5-1.5,6.7-1.6,7.6c0,0.4,0.2,0.6,0.6,0.6l0.6,0l-0.1,0.4h-3.3
		l0.1-0.4l0.5,0c0.4,0,0.7-0.2,0.8-0.6c0.3-0.9,0.8-2.9,1.9-7.6c0.1-0.5,0-0.6-0.3-0.7l-0.8-0.1L303.8,21.4z"/>
	<path class="st1" d="M322.4,24.3l-1.5,5.6c-0.1,0.4-0.1,0.8,0.1,0.8c0.4,0,1-1,1.3-1.5l0.4,0.2c-0.5,1.1-1.3,2.1-2.4,2.1
		c-0.8,0-0.9-0.6-0.6-1.6l0.4-1.5h0c-0.8,1.4-2.1,3.1-3.6,3.1c-1,0-1.3-0.7-1.3-1.7c0-1.9,1.5-5.6,4.9-5.6c0.5,0,0.9,0.1,1.1,0.3
		l0.1-0.2H322.4z M320.1,24.7c-2.2,0-3.6,3.4-3.6,5c0,0.6,0.1,1,0.6,1c1.3,0,3.1-3.2,3.5-4.6c0.1-0.4,0.2-0.8,0.3-1.1
		C320.7,24.8,320.4,24.7,320.1,24.7z"/>
	<path class="st1" d="M331.6,20.7L331.6,20.7l-2.2,9.2c-0.1,0.4-0.1,0.8,0.1,0.8c0.4,0,1-1,1.3-1.5l0.4,0.3c-0.5,1.1-1.3,2-2.4,2
		c-0.7,0-0.9-0.6-0.7-1.6c0.1-0.5,0.3-1,0.4-1.5h0c-0.8,1.5-2,3.1-3.7,3.1c-1.2,0-1.4-1-1.4-1.9c0-1.7,1.5-5.4,4.8-5.4
		c0.5,0,0.9,0.1,1.2,0.3L330,22c0.1-0.5,0.1-0.5-0.3-0.6l-0.8-0.1L329,21L331.6,20.7z M324.9,29.6c0,0.6,0.2,1,0.7,1
		c1.4,0,3.1-3.2,3.5-4.6c0.1-0.4,0.2-0.7,0.3-1.1c-0.2-0.1-0.5-0.3-0.9-0.3C326.1,24.7,324.9,28.1,324.9,29.6L324.9,29.6z"/>
	<path class="st1" d="M335.3,29.4c-0.5,1-1.3,2-2.3,2c-0.8,0-1-0.6-0.8-1.4l2-7.9c0.1-0.6,0.1-0.6-0.3-0.7l-0.8-0.1l0.1-0.3l2.6-0.3
		l0.1,0.1l-2.3,9.1c-0.1,0.5-0.1,0.8,0.1,0.8c0.3,0,1-0.8,1.3-1.5L335.3,29.4z"/>
	<path class="st1" d="M341.6,29.3c-1,1.6-2.2,2.1-3.4,2.1c-0.9,0-2.1-0.4-2.1-2.3c0-1.2,0.4-2.5,1.2-3.4c0.8-1,1.8-1.5,3-1.5
		c1.2,0,1.7,0.7,1.7,1.4c0,1.9-3,2.5-4.5,2.7c0,0.1,0,0.5,0,0.5c0,1.1,0.3,1.9,1.3,1.9c1.1,0,1.9-0.9,2.4-1.6L341.6,29.3z
		 M340.8,25.5c0-0.5-0.3-0.8-0.8-0.8c-1.1,0-2.1,1.4-2.4,3.1C339.5,27.5,340.8,26.8,340.8,25.5z"/>
	<path class="st1" d="M342.7,31.4l1.5-5.8c0.1-0.5,0.1-0.6-0.2-0.7l-0.9-0.1l0.1-0.4l2.6-0.4l0.1,0.1l-0.9,2.9h0
		c0.9-1.7,2.2-3,3.6-3c1.2,0,1.3,1,1,2.1l-1.1,3.6c-0.1,0.4-0.2,0.8,0.1,0.8c0.4,0,1-1,1.3-1.5l0.3,0.3c-0.5,1.1-1.3,2-2.4,2
		c-0.8,0-1-0.6-0.7-1.4l1.2-4.1c0.2-0.5,0-1-0.5-1c-1.1,0-2.4,2.1-2.9,3.3c-0.4,0.9-0.6,1.6-1.1,3L342.7,31.4z"/>
	<path class="st1" d="M356.7,29.3c-1,1.6-2.2,2.1-3.4,2.1c-0.9,0-2.1-0.4-2.1-2.3c0-1.2,0.4-2.5,1.2-3.4c0.8-1,1.8-1.5,3-1.5
		c1.2,0,1.7,0.7,1.7,1.4c0,1.9-3,2.5-4.5,2.7c0,0.1,0,0.5,0,0.5c0,1.1,0.3,1.9,1.3,1.9c1.1,0,1.9-0.9,2.4-1.6L356.7,29.3z
		 M355.9,25.5c0-0.5-0.3-0.8-0.8-0.8c-1.1,0-2.1,1.4-2.4,3.1C354.6,27.5,355.9,26.8,355.9,25.5z"/>
	<path class="st1" d="M357.9,31.4l1.1-5c0.2-1,0.3-1.4,0-1.4l-1-0.1l0.1-0.3l2.4-0.4l0.1,0.1l-0.6,2.6h0.1c0.8-1.6,1.7-2.7,2.5-2.7
		c0.5,0,0.7,0.2,0.6,0.6c0,0.4-0.4,1-0.7,1c-0.5,0-0.4-0.4-0.8-0.4c-0.4,0-1,1-1.6,2.5c-0.4,1.1-0.7,2.2-1,3.4L357.9,31.4z"/>
	<path class="st1" d="M372.2,21.4l-0.1,0.4l-0.8,0.1c-0.3,0-0.5,0.3-0.6,0.7L369,30c-0.1,0.5,0,0.7,0.3,0.7l0.8,0.1l-0.1,0.4h-4
		l0.1-0.4l0.8-0.1c0.3,0,0.5-0.2,0.6-0.7l1.7-7.4c0.1-0.4,0-0.7-0.3-0.7l-0.8-0.1l0.1-0.4H372.2z M377.3,21.4l0,0.4
		c-1.1,0.1-1.5,0.3-2.3,0.8c-1.3,0.9-2.5,1.9-3.8,2.9c0.6,1.2,1.7,3.2,2.6,4.3c0.5,0.6,1,0.9,1.8,1l-0.1,0.4l-0.9,0
		c-1.1,0-1.8-0.2-2.4-1.1c-0.8-1.2-1.5-2.7-2.2-4l0-0.1c1.5-1.2,3.1-2.5,4.4-3.7c0.3-0.3,0.3-0.4,0-0.5l-0.5,0l0.1-0.4H377.3z"/>
	<path class="st1" d="M381.7,29.3c-1,1.6-2.2,2.1-3.4,2.1c-0.9,0-2.1-0.4-2.1-2.3c0-1.2,0.4-2.5,1.2-3.4c0.8-1,1.8-1.5,3-1.5
		c1.2,0,1.7,0.7,1.7,1.4c0,1.9-3,2.5-4.5,2.7c0,0.1,0,0.5,0,0.5c0,1.1,0.3,1.9,1.3,1.9c1.1,0,1.9-0.9,2.4-1.6L381.7,29.3z
		 M380.9,25.5c0-0.5-0.3-0.8-0.8-0.8c-1.1,0-2.1,1.4-2.4,3.1C379.6,27.5,380.9,26.8,380.9,25.5z"/>
	<path class="st1" d="M385.9,24.1c1.3,0,1.7,0.8,1.7,1.2c0,0.4-0.4,0.6-0.6,0.6c-0.2,0-0.3-0.1-0.4-0.3c-0.3-0.6-0.6-1-1.1-1
		c-0.5,0-0.9,0.4-0.9,0.9c0,0.5,0.1,0.8,1,1.5c1,0.8,1.4,1.2,1.4,2.1c0,1.1-1,2.2-2.6,2.2c-1.4,0-2-0.8-2-1.4c0-0.3,0.3-0.7,0.7-0.7
		c0.2,0,0.3,0.1,0.4,0.4c0.2,0.7,0.8,1.1,1.3,1.1c0.5,0,1-0.3,1-1c0-0.5-0.3-1-1-1.6c-0.7-0.6-1.3-1.1-1.3-1.9
		C383.5,25.1,384.4,24.1,385.9,24.1L385.9,24.1z"/>
	<path class="st1" d="M391.3,24.1c1.3,0,1.7,0.8,1.7,1.2c0,0.4-0.4,0.6-0.6,0.6c-0.2,0-0.3-0.1-0.4-0.3c-0.3-0.6-0.6-1-1.1-1
		c-0.5,0-0.9,0.4-0.9,0.9c0,0.5,0.1,0.8,1,1.5c1,0.8,1.4,1.2,1.4,2.1c0,1.1-1,2.2-2.6,2.2c-1.4,0-2-0.8-2-1.4c0-0.3,0.3-0.7,0.7-0.7
		c0.2,0,0.3,0.1,0.4,0.4c0.2,0.7,0.8,1.1,1.3,1.1c0.5,0,1-0.3,1-1c0-0.5-0.3-1-1-1.6c-0.7-0.6-1.3-1.1-1.3-1.9
		C388.9,25.1,389.8,24.1,391.3,24.1L391.3,24.1z"/>
	<path class="st1" d="M399.2,29.3c-1,1.6-2.2,2.1-3.4,2.1c-0.9,0-2.1-0.4-2.1-2.3c0-1.2,0.4-2.5,1.2-3.4c0.8-1,1.8-1.5,3-1.5
		c1.2,0,1.7,0.7,1.7,1.4c0,1.9-3,2.5-4.5,2.7c0,0.1,0,0.5,0,0.5c0,1.1,0.3,1.9,1.3,1.9c1.1,0,1.9-0.9,2.4-1.6L399.2,29.3z
		 M398.4,25.5c0-0.5-0.3-0.8-0.8-0.8c-1.1,0-2.1,1.4-2.4,3.1C397.1,27.5,398.4,26.8,398.4,25.5z"/>
	<path class="st1" d="M400.3,31.4l1.5-5.8c0.1-0.5,0.1-0.6-0.2-0.7l-0.9-0.1l0.1-0.4l2.6-0.4l0.1,0.1l-0.9,2.9h0
		c0.9-1.7,2.2-3,3.6-3c1.2,0,1.3,1,1,2.1l-1.1,3.6c-0.1,0.4-0.2,0.8,0.1,0.8c0.4,0,1-1,1.3-1.5l0.3,0.3c-0.5,1.1-1.3,2-2.4,2
		c-0.8,0-1-0.6-0.7-1.4l1.2-4.1c0.2-0.5,0-1-0.5-1c-1.1,0-2.4,2.1-2.9,3.3c-0.4,0.9-0.6,1.6-1.1,3L400.3,31.4z"/>
	<path class="st1" d="M412.1,24.1c1.3,0,1.7,0.8,1.7,1.2c0,0.4-0.4,0.6-0.6,0.6c-0.2,0-0.3-0.1-0.4-0.3c-0.3-0.6-0.6-1-1.1-1
		c-0.5,0-0.9,0.4-0.9,0.9c0,0.5,0.1,0.8,1,1.5c1,0.8,1.4,1.2,1.4,2.1c0,1.1-1,2.2-2.6,2.2c-1.4,0-2-0.8-2-1.4c0-0.3,0.3-0.7,0.7-0.7
		c0.2,0,0.3,0.1,0.4,0.4c0.2,0.7,0.8,1.1,1.3,1.1c0.5,0,1-0.3,1-1c0-0.5-0.3-1-1-1.6c-0.7-0.6-1.3-1.1-1.3-1.9
		C409.7,25.1,410.6,24.1,412.1,24.1L412.1,24.1z"/>
	<path class="st1" d="M258,44.9l0.7-3.2c0.1-0.4,0-0.7-0.3-0.7l-0.8-0.1l0.1-0.4h4l-0.1,0.4l-0.8,0.1c-0.4,0-0.5,0.2-0.6,0.7
		l-1.7,7.4c-0.1,0.5,0,0.7,0.3,0.7l0.8,0.1l-0.1,0.4h-4l0.1-0.4l0.8-0.1c0.3,0,0.5-0.2,0.6-0.7l0.8-3.6h-4.6l-0.8,3.6
		c-0.1,0.5,0,0.7,0.3,0.7l0.8,0.1l-0.1,0.4h-4l0.1-0.4l0.8-0.1c0.3,0,0.5-0.2,0.6-0.7l1.7-7.4c0.1-0.4,0-0.7-0.3-0.7l-0.8-0.1
		l0.1-0.4h4l-0.1,0.4l-0.8,0.1c-0.3,0-0.5,0.2-0.6,0.7l-0.8,3.2H258z"/>
	<path class="st1" d="M268.1,43.3l-1.5,5.6c-0.1,0.4-0.1,0.8,0.1,0.8c0.4,0,1-1,1.3-1.5l0.4,0.2c-0.5,1.1-1.3,2.1-2.4,2.1
		c-0.8,0-0.9-0.6-0.6-1.6l0.4-1.5h0c-0.8,1.4-2.1,3.1-3.6,3.1c-1,0-1.3-0.7-1.3-1.7c0-1.9,1.5-5.6,4.9-5.6c0.5,0,0.9,0.1,1.1,0.3
		l0.1-0.2H268.1z M265.8,43.7c-2.2,0-3.6,3.4-3.6,5c0,0.6,0.1,1,0.6,1c1.3,0,3.1-3.2,3.5-4.6c0.1-0.4,0.2-0.8,0.3-1.1
		C266.5,43.8,266.2,43.7,265.8,43.7z"/>
	<path class="st1" d="M269.4,50.4l1.1-5c0.2-1,0.3-1.4,0-1.4l-1-0.1l0.1-0.3l2.4-0.4l0.1,0.1l-0.6,2.6h0.1c0.8-1.6,1.7-2.7,2.5-2.7
		c0.5,0,0.7,0.2,0.6,0.6c0,0.4-0.4,1-0.7,1c-0.5,0-0.4-0.4-0.8-0.4c-0.4,0-1,1-1.6,2.5c-0.4,1.1-0.7,2.2-1,3.4L269.4,50.4z"/>
	<path class="st1" d="M282.8,39.7L282.8,39.7l-2.2,9.2c-0.1,0.4-0.1,0.8,0.1,0.8c0.4,0,1-1,1.3-1.5l0.4,0.3c-0.5,1.1-1.3,2-2.4,2
		c-0.7,0-0.9-0.6-0.7-1.6c0.1-0.5,0.3-1,0.4-1.5h0c-0.8,1.5-2,3.1-3.7,3.1c-1.2,0-1.4-1-1.4-1.9c0-1.7,1.5-5.4,4.8-5.4
		c0.5,0,0.9,0.1,1.2,0.3l0.6-2.4c0.1-0.5,0.1-0.5-0.3-0.6l-0.8-0.1l0.1-0.3L282.8,39.7z M276.1,48.6c0,0.6,0.2,1,0.7,1
		c1.4,0,3.1-3.2,3.5-4.6c0.1-0.4,0.2-0.7,0.3-1.1c-0.2-0.1-0.5-0.3-0.9-0.3C277.3,43.7,276.1,47.1,276.1,48.6L276.1,48.6z"/>
	<path class="st1" d="M283.7,43.6l2.6-0.4l0.1,0.1l-0.9,2.8h0c1-1.8,2.2-2.9,3.5-2.9c1,0,1.3,0.8,0.8,2.1l-0.2,0.8h0
		c1-1.8,2.3-2.9,3.5-2.9c1.2,0,1.3,1,1,2.1l-1.1,3.6c-0.1,0.4-0.2,0.8,0.1,0.8c0.4,0,1-1,1.3-1.5l0.3,0.2c-0.5,1.1-1.3,2-2.3,2
		c-0.7,0-1-0.5-0.8-1.4l1.2-4.1c0.2-0.6,0-1-0.5-1c-1.2,0-2.4,2-2.9,3.2c-0.4,0.8-0.6,1.7-1.1,3.1l-1.3,0.2c0.5-1.7,1-3.6,1.4-5.3
		c0.2-0.8,0-1.1-0.4-1.1c-1.1,0-2.5,2.1-2.9,3.3c-0.3,0.8-0.6,1.6-1,3l-1.3,0.2l1.5-5.8c0.1-0.5,0.2-0.6-0.2-0.7l-0.9-0.1
		L283.7,43.6z"/>
	<path class="st1" d="M303,43.3l-1.5,5.6c-0.1,0.4-0.1,0.8,0.1,0.8c0.4,0,1-1,1.3-1.5l0.4,0.2c-0.5,1.1-1.3,2.1-2.4,2.1
		c-0.8,0-0.9-0.6-0.6-1.6l0.4-1.5h0c-0.8,1.4-2.1,3.1-3.6,3.1c-1,0-1.3-0.7-1.3-1.7c0-1.9,1.5-5.6,4.9-5.6c0.5,0,0.9,0.1,1.1,0.3
		l0.1-0.2H303z M300.8,43.7c-2.2,0-3.6,3.4-3.6,5c0,0.6,0.1,1,0.6,1c1.3,0,3.1-3.2,3.5-4.6c0.1-0.4,0.2-0.8,0.3-1.1
		C301.4,43.8,301.1,43.7,300.8,43.7z"/>
	<path class="st1" d="M307.1,43.9l-1.2,5.1c-0.1,0.3-0.1,0.6,0.2,0.6c0.4,0,1.2-0.9,1.5-1.5l0.3,0.3c-0.6,1.1-1.5,2-2.6,2
		c-0.7,0-0.9-0.6-0.7-1.4l1.3-5.1h-1.2l0.2-0.6h1.1l0.3-1.3l1.3-0.8l0.2,0.1l-0.5,1.9h1.7l-0.2,0.6H307.1z"/>
	<path class="st1" d="M311.7,43.9l-1.2,5.1c-0.1,0.3-0.1,0.6,0.2,0.6c0.4,0,1.2-0.9,1.5-1.5l0.3,0.3c-0.6,1.1-1.5,2-2.6,2
		c-0.7,0-0.9-0.6-0.7-1.4l1.3-5.1h-1.2l0.2-0.6h1.1l0.3-1.3l1.3-0.8l0.2,0.1l-0.5,1.9h1.7l-0.2,0.6H311.7z"/>
	<path class="st1" d="M319.7,45.6c-0.6,0-1,0.1-1.2,0.1c-0.2,0-0.3-0.1-0.3-0.3c0-0.2,0.2-0.5,0.3-0.5c0.2,0,0.7,0.1,1.3,0.1
		c1.1,0,1.9-1.1,1.9-2.2c0-0.5-0.2-1.4-1.2-1.4c-0.7,0-1.2,0.6-1.6,1.4c-0.1,0.3-0.2,0.4-0.4,0.4c-0.2,0-0.6-0.2-0.6-0.6
		c0-0.8,1.2-1.7,2.7-1.7c1.1,0,2.6,0.5,2.6,2c0,1.5-1.4,2.2-2.5,2.3v0c0.9,0.2,2,0.8,2,2.1c0,2.1-1.8,3-3.6,3c-2,0-2.8-1-2.8-1.7
		c0-0.5,0.4-0.8,0.7-0.8c0.2,0,0.3,0.2,0.4,0.4c0.3,1.1,0.9,1.5,1.8,1.5c0.9,0,2-0.6,2-2.7C321.2,46.6,320.9,45.6,319.7,45.6
		L319.7,45.6z"/>
	<path class="st1" d="M255,60.1c1.5,0,1.8,0,1.9-0.2l0.1,0.2l-0.7,1.2h-3.5c-0.2,0-0.3,0-0.4,0.3l-0.8,2.7l0,0
		c0.5-0.4,1.3-0.6,2.1-0.6c1.6,0,2.6,0.9,2.6,2.5c0,2-1.7,3.3-3.7,3.3c-1.9,0-2.7-0.9-2.7-1.7c0-0.4,0.4-0.8,0.7-0.8
		c0.2,0,0.3,0.2,0.4,0.4c0.3,1.1,1,1.5,1.8,1.5c1.1,0,2-0.8,2-2.6c0-1.3-0.6-2-1.6-2c-0.9,0-1.5,0.3-2,0.8l-0.3-0.2l1.3-4.7l0.1-0.1
		H255z"/>
	<path class="st1" d="M262.3,66.7l-0.3,1.6c-0.1,0.3,0,0.4,0.3,0.4l0.8,0.1l-0.1,0.4h-3.7l0.1-0.4l0.8-0.1c0.2,0,0.4-0.1,0.5-0.4
		l0.3-1.6h-3.7l-0.1-0.3c0.7-1,3.6-4.3,5.5-6.3h1l-1.3,6h1.4l-0.1,0.5H262.3z M261.2,66.2l1.1-4.9l0,0c-1.3,1.4-3.6,4.2-4,4.9H261.2
		z"/>
	<path class="st1" d="M267.8,64.6c-0.6,0-1,0.1-1.2,0.1c-0.2,0-0.3-0.1-0.3-0.3c0-0.2,0.2-0.5,0.3-0.5c0.2,0,0.7,0.1,1.3,0.1
		c1.1,0,1.9-1.1,1.9-2.2c0-0.5-0.2-1.4-1.2-1.4c-0.7,0-1.2,0.6-1.6,1.4c-0.1,0.3-0.2,0.4-0.4,0.4c-0.2,0-0.6-0.2-0.6-0.6
		c0-0.8,1.2-1.7,2.7-1.7c1.1,0,2.6,0.5,2.6,2c0,1.5-1.4,2.2-2.5,2.3v0c0.9,0.2,2,0.8,2,2.1c0,2.1-1.8,3-3.6,3c-2,0-2.8-1-2.8-1.7
		c0-0.5,0.4-0.8,0.7-0.8c0.2,0,0.3,0.2,0.4,0.4c0.3,1.1,0.9,1.5,1.8,1.5c0.9,0,2-0.6,2-2.7C269.3,65.6,268.9,64.6,267.8,64.6
		L267.8,64.6z"/>
	<path class="st1" d="M276.3,60c2.2,0,2.5,1.8,2.5,3c0,1-0.3,2.7-0.9,4.1c-0.7,1.5-1.7,2.4-3.2,2.4c-2,0-2.5-1.5-2.5-3
		c0-1.4,0.4-3,1-4.2C273.9,60.9,274.9,60,276.3,60L276.3,60z M276.3,60.5c-0.9,0-1.6,1.2-2.1,2.7c-0.5,1.5-0.7,3-0.7,3.9
		c0,1.3,0.5,1.8,1.2,1.8c1.1,0,1.7-1.4,2.2-3c0.4-1.5,0.6-3.2,0.6-3.6C277.5,61.2,277.3,60.5,276.3,60.5L276.3,60.5z"/>
	<path class="st1" d="M287.1,59.4l-0.1,0.4l-0.9,0.1c-0.2,0-0.3,0.1-0.3,0.5c0,1.5,0.3,5,0.4,7h0.1c1.1-2.2,2.9-5.9,3.8-7.7h1
		c0.1,2,0.6,5.7,0.8,7.7h0.1c1-1.9,2.4-4.9,3.3-6.9c0.1-0.3,0.1-0.5-0.1-0.5l-0.9-0.1l0.1-0.4h3.1l-0.1,0.4c-0.9,0.1-1,0.2-1.4,0.9
		c-1.1,2-3.3,6.6-4.2,8.5h-1c-0.1-2-0.7-6.6-0.8-7.7h-0.1c-1,1.9-2.9,5.8-3.8,7.7h-1c-0.1-2.2-0.4-6.8-0.6-8.7c0-0.5-0.2-0.6-1-0.7
		l0.1-0.4H287.1z"/>
	<path class="st1" d="M301.2,67.3c-1,1.6-2.2,2.1-3.4,2.1c-0.9,0-2.1-0.4-2.1-2.3c0-1.2,0.4-2.5,1.2-3.4c0.8-1,1.8-1.5,3-1.5
		c1.2,0,1.7,0.7,1.7,1.4c0,1.9-3,2.5-4.5,2.7c0,0.1,0,0.5,0,0.5c0,1.1,0.3,1.9,1.3,1.9c1.1,0,1.9-0.9,2.4-1.6L301.2,67.3z
		 M300.3,63.5c0-0.5-0.3-0.8-0.8-0.8c-1.1,0-2.1,1.4-2.4,3.1C299,65.5,300.3,64.8,300.3,63.5z"/>
	<path class="st1" d="M305.2,62.9l-1.2,5.1c-0.1,0.3-0.1,0.6,0.2,0.6c0.4,0,1.2-0.9,1.5-1.5l0.3,0.3c-0.6,1.1-1.5,2-2.6,2
		c-0.7,0-0.9-0.6-0.7-1.4l1.3-5.1h-1.2l0.2-0.6h1.1l0.3-1.3l1.3-0.8l0.2,0.1l-0.5,1.9h1.7l-0.2,0.6H305.2z"/>
	<path class="st1" d="M309.8,62.9l-1.2,5.1c-0.1,0.3-0.1,0.6,0.2,0.6c0.4,0,1.2-0.9,1.5-1.5l0.3,0.3c-0.6,1.1-1.5,2-2.6,2
		c-0.7,0-0.9-0.6-0.7-1.4l1.3-5.1h-1.2l0.2-0.6h1.1L309,61l1.3-0.8l0.2,0.1l-0.5,1.9h1.7l-0.2,0.6H309.8z"/>
	<path class="st1" d="M315,67.4c-0.5,1.1-1.3,2-2.3,2c-0.8,0-1-0.6-0.8-1.4l1.2-4.4c0.1-0.5,0.1-0.6-0.3-0.6l-0.8-0.1l0.1-0.3
		l2.6-0.4l0.1,0.1l-1.5,5.6c-0.1,0.5-0.1,0.8,0.1,0.8c0.4,0,1-1,1.3-1.5L315,67.4z M314.6,59.3c0.4,0,0.8,0.2,0.8,0.8
		c0,0.6-0.4,1-0.9,1c-0.4,0-0.8-0.3-0.8-0.8C313.6,59.8,314,59.3,314.6,59.3L314.6,59.3z"/>
	<path class="st1" d="M316,69.4l1.5-5.8c0.1-0.5,0.1-0.6-0.2-0.7l-0.9-0.1l0.1-0.4l2.6-0.4l0.1,0.1l-0.9,2.9h0c0.9-1.7,2.2-3,3.6-3
		c1.2,0,1.3,1,1,2.1l-1.1,3.6c-0.1,0.4-0.2,0.8,0.1,0.8c0.4,0,1-1,1.3-1.5l0.3,0.3c-0.5,1.1-1.3,2-2.4,2c-0.8,0-1-0.6-0.7-1.4
		l1.2-4.1c0.2-0.5,0-1-0.5-1c-1.1,0-2.4,2.1-2.9,3.3c-0.4,0.9-0.6,1.6-1.1,3L316,69.4z"/>
	<path class="st1" d="M330.2,63.2c0.2,0.2,0.2,0.7,0.2,1.1c0,1.5-1,2.5-3,2.5c-0.3,0-0.6,0-0.8-0.1c-0.3,0.1-0.6,0.3-0.6,0.5
		c0,0.2,0.1,0.4,0.7,0.6c0.6,0.2,1.3,0.4,2,0.5c1,0.3,1.6,0.8,1.6,1.8c0,1.2-1.1,2.5-3.5,2.5c-1.9,0-3.3-0.9-3.3-2.1
		c0-0.8,0.5-1.5,2-1.8v0c-0.6-0.2-0.8-0.7-0.8-1c0-0.5,0.5-1,1.3-1.1v0c-0.4-0.2-1.1-0.6-1.1-1.8c0-0.9,0.6-2.5,3-2.5
		c0.7,0,1.2,0.1,1.7,0.4l1.8-0.3l0.1,0.1l-0.5,0.8H330.2z M327.2,72.2c1.2,0,1.9-0.5,1.9-1.4c0-0.5-0.3-0.9-1-1.2
		c-0.3-0.1-1.3-0.4-1.8-0.5c-0.6,0.1-1.5,0.4-1.5,1.4C324.8,71.6,325.9,72.2,327.2,72.2L327.2,72.2z M328.1,62.6
		c-1.2,0-1.7,1.4-1.7,2.3c0,0.9,0.4,1.4,1.1,1.4c1,0,1.6-1.1,1.6-2.4C329.2,63,328.6,62.6,328.1,62.6L328.1,62.6z"/>
	<path class="st1" d="M337.2,67.3c-1,1.6-2.2,2.1-3.4,2.1c-0.9,0-2.1-0.4-2.1-2.3c0-1.2,0.4-2.5,1.2-3.4c0.8-1,1.8-1.5,3-1.5
		c1.2,0,1.7,0.7,1.7,1.4c0,1.9-3,2.5-4.5,2.7c0,0.1,0,0.5,0,0.5c0,1.1,0.3,1.9,1.3,1.9c1.1,0,1.9-0.9,2.4-1.6L337.2,67.3z
		 M336.3,63.5c0-0.5-0.3-0.8-0.8-0.8c-1.1,0-2.1,1.4-2.4,3.1C335,65.5,336.3,64.8,336.3,63.5z"/>
	<path class="st1" d="M338.3,69.4l1.5-5.8c0.1-0.5,0.1-0.6-0.2-0.7l-0.9-0.1l0.1-0.4l2.6-0.4l0.1,0.1l-0.9,2.9h0
		c0.9-1.7,2.2-3,3.6-3c1.2,0,1.3,1,1,2.1l-1.1,3.6c-0.1,0.4-0.2,0.8,0.1,0.8c0.4,0,1-1,1.3-1.5l0.3,0.3c-0.5,1.1-1.3,2-2.4,2
		c-0.8,0-1-0.6-0.7-1.4l1.2-4.1c0.2-0.5,0-1-0.5-1c-1.1,0-2.4,2.1-2.9,3.3c-0.4,0.9-0.6,1.6-1.1,3L338.3,69.4z"/>
	<path class="st1" d="M254.4,79c2.2,0,2.5,1.8,2.5,3c0,1-0.3,2.7-0.9,4.1c-0.7,1.5-1.7,2.4-3.2,2.4c-2,0-2.5-1.5-2.5-3
		c0-1.4,0.4-3,1-4.2C252,79.9,253,79,254.4,79L254.4,79z M254.4,79.5c-0.9,0-1.6,1.2-2.1,2.7c-0.5,1.5-0.7,3-0.7,3.9
		c0,1.3,0.5,1.8,1.2,1.8c1.1,0,1.7-1.4,2.2-3c0.4-1.5,0.6-3.2,0.6-3.6C255.6,80.2,255.4,79.5,254.4,79.5L254.4,79.5z"/>
	<path class="st1" d="M264.9,79.1l0.1,0.1c-0.4,1.3-1.6,2.6-2.8,4.1c-1,1.2-1.8,2.7-1.9,4.4c0,0.4-0.2,0.6-0.7,0.6
		c-0.4,0-0.7-0.2-0.7-0.6c0-1,0.6-2.2,2.9-4.7c1.1-1.2,1.9-2.3,2.2-2.8h-3.6c-0.8,0-0.9,0.1-1.5,1.1l-0.4,0l0.8-2.3H264.9z"/>
	<path class="st1" d="M267.7,84.6c-1.4,0-2.3-1-2.3-2.4c0-2,1.4-3.2,3.2-3.2c2.1,0,2.9,1.4,2.8,3.5c-0.1,1.9-0.5,3.5-1.4,4.6
		c-0.7,0.9-1.6,1.4-2.9,1.4c-1.7,0-2.5-0.9-2.5-1.5c0-0.5,0.4-0.8,0.7-0.8c0.2,0,0.3,0.1,0.4,0.4c0.2,1,0.7,1.4,1.4,1.4
		c1.8,0,2.4-2.5,2.7-4.2h0C269.3,84.2,268.7,84.6,267.7,84.6L267.7,84.6z M268.4,83.9c0.6,0,1-0.2,1.3-0.7c0.2-0.3,0.3-0.8,0.3-1.3
		c0-1.4-0.3-2.5-1.5-2.5c-1,0-1.8,0.9-1.8,2.6C266.7,83,267.2,83.9,268.4,83.9L268.4,83.9z"/>
	<path class="st1" d="M280,79.1c1.5,0,1.8,0,1.9-0.2l0.1,0.2l-0.7,1.2h-3.5c-0.2,0-0.3,0-0.4,0.3l-0.8,2.7l0,0
		c0.5-0.4,1.3-0.6,2.1-0.6c1.6,0,2.6,0.9,2.6,2.5c0,2-1.7,3.3-3.7,3.3c-1.9,0-2.7-0.9-2.7-1.7c0-0.4,0.4-0.8,0.7-0.8
		c0.2,0,0.3,0.2,0.4,0.4c0.3,1.1,1,1.5,1.8,1.5c1.1,0,2-0.8,2-2.6c0-1.3-0.6-2-1.6-2c-0.9,0-1.5,0.3-2,0.8l-0.3-0.2l1.3-4.7l0.1-0.1
		H280z"/>
	<path class="st1" d="M286.6,79c1.9,0,2.5,1.1,2.5,2.1c0,1.4-1,2.1-2,2.2v0c0.6,0.2,1.5,0.8,1.5,2.1c0,1.7-1.1,3-3.4,3
		c-2,0-2.9-1.1-2.9-2.3c0-1.7,1.2-2.7,2.5-2.8v-0.1c-0.6-0.3-1.1-0.7-1.1-1.7C283.7,79.8,285.1,79,286.6,79L286.6,79z M285.8,83.6
		c-1.2,0-2,1.1-2,2.6c0,1.1,0.6,1.7,1.6,1.7c1.2,0,1.9-1.2,1.9-2.7C287.3,84.2,286.7,83.6,285.8,83.6L285.8,83.6z M286.6,79.5
		c-1.2,0-1.6,1.3-1.6,2.3c0,0.7,0.3,1.3,1.2,1.3c0.9,0,1.6-1,1.6-2.3C287.8,80,287.5,79.5,286.6,79.5L286.6,79.5z"/>
	<path class="st1" d="M297.2,79.1l0.1,0.1c-0.4,1.3-1.6,2.6-2.8,4.1c-1,1.2-1.8,2.7-1.9,4.4c0,0.4-0.2,0.6-0.7,0.6
		c-0.4,0-0.7-0.2-0.7-0.6c0-1,0.6-2.2,2.9-4.7c1.1-1.2,1.9-2.3,2.2-2.8h-3.6c-0.8,0-0.9,0.1-1.5,1.1l-0.4,0l0.8-2.3H297.2z"/>
	<path class="st1" d="M303.1,84.6c-1.4,0-2.3-1-2.3-2.4c0-2,1.4-3.2,3.2-3.2c2.1,0,2.9,1.4,2.8,3.5c-0.1,1.9-0.5,3.5-1.4,4.6
		c-0.7,0.9-1.6,1.4-2.9,1.4c-1.7,0-2.5-0.9-2.5-1.5c0-0.5,0.4-0.8,0.7-0.8c0.2,0,0.3,0.1,0.4,0.4c0.2,1,0.7,1.4,1.4,1.4
		c1.8,0,2.4-2.5,2.7-4.2h0C304.7,84.2,304.1,84.6,303.1,84.6L303.1,84.6z M303.8,83.9c0.6,0,1-0.2,1.3-0.7c0.2-0.3,0.3-0.8,0.3-1.3
		c0-1.4-0.3-2.5-1.5-2.5c-1,0-1.8,0.9-1.8,2.6C302.2,83,302.6,83.9,303.8,83.9L303.8,83.9z"/>
	<path class="st1" d="M310.4,84.6c-1.4,0-2.3-1-2.3-2.4c0-2,1.4-3.2,3.2-3.2c2.1,0,2.9,1.4,2.8,3.5c-0.1,1.9-0.5,3.5-1.4,4.6
		c-0.7,0.9-1.6,1.4-2.9,1.4c-1.7,0-2.5-0.9-2.5-1.5c0-0.5,0.4-0.8,0.7-0.8c0.2,0,0.3,0.1,0.4,0.4c0.2,1,0.7,1.4,1.4,1.4
		c1.8,0,2.4-2.5,2.7-4.2h0C312,84.2,311.4,84.6,310.4,84.6L310.4,84.6z M311.1,83.9c0.6,0,1-0.2,1.3-0.7c0.2-0.3,0.3-0.8,0.3-1.3
		c0-1.4-0.3-2.5-1.5-2.5c-1,0-1.8,0.9-1.8,2.6C309.4,83,309.9,83.9,311.1,83.9L311.1,83.9z"/>
	<path class="st1" d="M322,79c1.9,0,2.5,1.1,2.5,2.1c0,1.4-1,2.1-2,2.2v0c0.6,0.2,1.5,0.8,1.5,2.1c0,1.7-1.1,3-3.4,3
		c-2,0-2.9-1.1-2.9-2.3c0-1.7,1.2-2.7,2.4-2.8v-0.1c-0.6-0.3-1.1-0.7-1.1-1.7C319.1,79.8,320.5,79,322,79L322,79z M321.2,83.6
		c-1.2,0-2,1.1-2,2.6c0,1.1,0.6,1.7,1.6,1.7c1.2,0,1.9-1.2,1.9-2.7C322.7,84.2,322.1,83.6,321.2,83.6L321.2,83.6z M322,79.5
		c-1.2,0-1.6,1.3-1.6,2.3c0,0.7,0.3,1.3,1.2,1.3s1.6-1,1.6-2.3C323.2,80,322.9,79.5,322,79.5L322,79.5z"/>
	<path class="st1" d="M329.4,79c2.2,0,2.5,1.8,2.5,3c0,1-0.3,2.7-0.9,4.1c-0.7,1.5-1.7,2.4-3.2,2.4c-2,0-2.5-1.5-2.5-3
		c0-1.4,0.4-3,1-4.2C327,79.9,328,79,329.4,79L329.4,79z M329.4,79.5c-0.9,0-1.6,1.2-2.1,2.7c-0.5,1.5-0.7,3-0.7,3.9
		c0,1.3,0.5,1.8,1.2,1.8c1.1,0,1.7-1.4,2.2-3c0.4-1.5,0.6-3.2,0.6-3.6C330.6,80.2,330.4,79.5,329.4,79.5L329.4,79.5z"/>
	<path class="st1" d="M250.7,100.6l2.6-0.4l0.1,0.1l-0.9,2.8h0c1-1.8,2.2-2.9,3.5-2.9c1,0,1.3,0.8,0.8,2.1l-0.2,0.8h0
		c1-1.8,2.3-2.9,3.5-2.9c1.2,0,1.3,1,1,2.1l-1.1,3.6c-0.1,0.4-0.2,0.8,0.1,0.8c0.4,0,1-1,1.3-1.5l0.3,0.2c-0.5,1.1-1.3,2-2.3,2
		c-0.7,0-1-0.5-0.8-1.4l1.2-4.1c0.2-0.6,0-1-0.5-1c-1.2,0-2.4,2-2.9,3.2c-0.4,0.8-0.6,1.7-1.1,3.1l-1.3,0.2c0.5-1.7,1-3.6,1.4-5.3
		c0.2-0.8,0-1.1-0.4-1.1c-1.1,0-2.5,2.1-2.9,3.3c-0.3,0.8-0.6,1.6-1,3l-1.3,0.2l1.5-5.8c0.1-0.5,0.2-0.6-0.2-0.7l-0.9-0.1
		L250.7,100.6z"/>
	<path class="st1" d="M263.5,107.4c-0.5,0-0.8-0.4-0.8-0.9c0-0.6,0.4-1,0.9-1c0.6,0,0.8,0.4,0.8,0.9
		C264.5,107,264.1,107.4,263.5,107.4L263.5,107.4z"/>
	<path class="st1" d="M267.1,100.6l2.6-0.4l0.1,0.1l-0.9,2.8h0c1-1.8,2.2-2.9,3.5-2.9c1,0,1.3,0.8,0.8,2.1l-0.2,0.8h0
		c1-1.8,2.3-2.9,3.5-2.9c1.2,0,1.3,1,1,2.1l-1.1,3.6c-0.1,0.4-0.2,0.8,0.1,0.8c0.4,0,1-1,1.3-1.5l0.3,0.2c-0.5,1.1-1.3,2-2.3,2
		c-0.7,0-1-0.5-0.8-1.4l1.2-4.1c0.2-0.6,0-1-0.5-1c-1.2,0-2.4,2-2.9,3.2c-0.4,0.8-0.6,1.7-1.1,3.1l-1.3,0.2c0.5-1.7,1-3.6,1.4-5.3
		c0.2-0.8,0-1.1-0.4-1.1c-1.1,0-2.5,2.1-2.9,3.3c-0.3,0.8-0.6,1.6-1,3l-1.3,0.2l1.5-5.8c0.1-0.5,0.2-0.6-0.2-0.7l-0.9-0.1
		L267.1,100.6z"/>
	<path class="st1" d="M286.4,100.3l-1.5,5.6c-0.1,0.5-0.1,0.8,0.1,0.8c0.4,0,1-1,1.3-1.5l0.4,0.2c-0.5,1.1-1.3,2.1-2.4,2.1
		c-0.8,0-0.9-0.6-0.6-1.6l0.4-1.5h0c-0.8,1.4-2.1,3.1-3.6,3.1c-1,0-1.3-0.7-1.3-1.7c0-1.9,1.5-5.6,4.9-5.6c0.5,0,0.9,0.2,1.1,0.3
		l0.1-0.2H286.4z M284.1,100.7c-2.2,0-3.6,3.4-3.6,5c0,0.6,0.1,1,0.6,1c1.3,0,3.1-3.2,3.5-4.6c0.1-0.4,0.2-0.8,0.3-1.1
		C284.8,100.8,284.5,100.7,284.1,100.7z"/>
	<path class="st1" d="M295.6,96.7L295.6,96.7l-2.2,9.2c-0.1,0.4-0.1,0.8,0.1,0.8c0.4,0,1-1,1.3-1.5l0.4,0.3c-0.5,1.1-1.3,2-2.4,2
		c-0.7,0-0.9-0.6-0.7-1.6c0.1-0.5,0.3-1,0.4-1.5h0c-0.8,1.5-2,3.1-3.7,3.1c-1.2,0-1.4-1-1.4-1.9c0-1.7,1.5-5.4,4.8-5.4
		c0.5,0,0.9,0.1,1.2,0.3l0.6-2.4c0.1-0.5,0.1-0.5-0.3-0.6l-0.8-0.1l0.1-0.3L295.6,96.7z M289,105.6c0,0.6,0.2,1,0.7,1
		c1.4,0,3.1-3.2,3.5-4.6c0.1-0.4,0.2-0.7,0.3-1.1c-0.2-0.1-0.5-0.3-0.9-0.3C290.2,100.7,289,104.1,289,105.6L289,105.6z"/>
	<path class="st1" d="M299.3,105.4c-0.5,1-1.3,2-2.3,2c-0.8,0-1-0.6-0.8-1.4l2-7.9c0.1-0.6,0.1-0.6-0.3-0.7l-0.8-0.1l0.1-0.3
		l2.6-0.3l0.1,0.1l-2.3,9.2c-0.1,0.5-0.1,0.8,0.1,0.8c0.3,0,1-0.8,1.3-1.5L299.3,105.4z"/>
	<path class="st1" d="M305.6,105.3c-1,1.6-2.2,2.1-3.4,2.1c-0.9,0-2.1-0.4-2.1-2.3c0-1.2,0.4-2.5,1.2-3.4c0.8-1,1.8-1.5,3-1.5
		c1.2,0,1.7,0.7,1.7,1.4c0,1.9-3,2.5-4.5,2.7c0,0.1,0,0.5,0,0.5c0,1.1,0.3,1.9,1.3,1.9c1.1,0,1.9-0.9,2.4-1.6L305.6,105.3z
		 M304.8,101.5c0-0.5-0.3-0.8-0.8-0.8c-1.1,0-2.1,1.4-2.4,3.1C303.5,103.5,304.8,102.8,304.8,101.5z"/>
	<path class="st1" d="M306.8,107.4l1.5-5.8c0.1-0.5,0.1-0.6-0.2-0.7l-0.9-0.1l0.1-0.4l2.6-0.4l0.1,0.1l-0.9,2.9h0
		c0.9-1.7,2.2-3,3.6-3c1.2,0,1.3,1,1,2.1l-1.1,3.6c-0.1,0.4-0.2,0.8,0.1,0.8c0.4,0,1-1,1.3-1.5l0.3,0.3c-0.5,1.1-1.3,2-2.4,2
		c-0.8,0-1-0.6-0.7-1.4l1.2-4.1c0.2-0.5,0-1-0.5-1c-1.1,0-2.4,2.1-2.9,3.3c-0.4,0.9-0.6,1.6-1.1,3L306.8,107.4z"/>
	<path class="st1" d="M320.8,105.3c-1,1.6-2.2,2.1-3.4,2.1c-0.9,0-2.1-0.4-2.1-2.3c0-1.2,0.4-2.5,1.2-3.4c0.8-1,1.8-1.5,3-1.5
		c1.2,0,1.7,0.7,1.7,1.4c0,1.9-3,2.5-4.5,2.7c0,0.1,0,0.5,0,0.5c0,1.1,0.3,1.9,1.3,1.9c1.1,0,1.9-0.9,2.4-1.6L320.8,105.3z
		 M319.9,101.5c0-0.5-0.3-0.8-0.8-0.8c-1.1,0-2.1,1.4-2.4,3.1C318.6,103.5,319.9,102.8,319.9,101.5z"/>
	<path class="st1" d="M321.9,107.4l1.1-5c0.2-1,0.3-1.4,0-1.4l-1-0.1l0.1-0.3l2.4-0.4l0.1,0.1l-0.6,2.6h0.1c0.8-1.6,1.7-2.7,2.5-2.7
		c0.5,0,0.7,0.2,0.6,0.6c0,0.4-0.4,1-0.7,1c-0.5,0-0.4-0.4-0.8-0.4c-0.4,0-1,1-1.6,2.5c-0.4,1.1-0.7,2.2-1,3.4L321.9,107.4z"/>
	<path class="st1" d="M336.3,101c-0.3,1.2-0.8,3.3-1,4.4c-0.2,0.8,0.1,1,0.5,1c1.5,0,2.2-2.4,2.2-3.8c0-2.6-1.8-3.8-3.9-3.8
		c-3.4,0-5.3,2.9-5.3,6c0,2.1,1,4.5,4.4,4.5c0.9,0,2-0.3,3.1-1l0.2,0.5c-1.2,0.9-2.7,1.2-3.7,1.2c-2.6,0-5-1.4-5-5.2
		s2.5-6.7,6.4-6.7c2.9,0,4.6,1.8,4.6,4.4c0,2-1.2,4.5-3.5,4.5c-1,0-1.4-0.3-0.9-2.1l0,0c-0.4,0.9-1.5,2.1-2.8,2.1
		c-0.5,0-1-0.4-1-1.5c0-1.5,1.1-4.7,3.9-4.7c0.3,0,0.6,0.1,0.9,0.2l0-0.2H336.3z M332.3,106.3c0.9,0,2.2-2.1,2.5-3.5
		c0.1-0.4,0.2-0.7,0.3-1.1c-0.2-0.2-0.4-0.2-0.7-0.2c-1.6,0-2.6,2.8-2.6,4C331.8,106,332,106.3,332.3,106.3L332.3,106.3z"/>
	<path class="st1" d="M348,96.7L348,96.7l-2.2,9.2c-0.1,0.4-0.1,0.8,0.1,0.8c0.4,0,1-1,1.3-1.5l0.4,0.3c-0.5,1.1-1.3,2-2.4,2
		c-0.7,0-0.9-0.6-0.7-1.6c0.1-0.5,0.3-1,0.4-1.5h0c-0.8,1.5-2,3.1-3.7,3.1c-1.2,0-1.4-1-1.4-1.9c0-1.7,1.5-5.4,4.8-5.4
		c0.5,0,0.9,0.1,1.2,0.3l0.6-2.4c0.1-0.5,0.1-0.5-0.3-0.6l-0.8-0.1l0.1-0.3L348,96.7z M341.4,105.6c0,0.6,0.2,1,0.7,1
		c1.4,0,3.1-3.2,3.5-4.6c0.1-0.4,0.2-0.7,0.3-1.1c-0.2-0.1-0.5-0.3-0.9-0.3C342.6,100.7,341.4,104.1,341.4,105.6L341.4,105.6z"/>
	<path class="st1" d="M353.9,105.3c-1,1.6-2.2,2.1-3.4,2.1c-0.9,0-2.1-0.4-2.1-2.3c0-1.2,0.4-2.5,1.2-3.4c0.8-1,1.8-1.5,3-1.5
		c1.2,0,1.7,0.7,1.7,1.4c0,1.9-3,2.5-4.5,2.7c0,0.1,0,0.5,0,0.5c0,1.1,0.3,1.9,1.3,1.9c1.1,0,1.9-0.9,2.4-1.6L353.9,105.3z
		 M353.1,101.5c0-0.5-0.3-0.8-0.8-0.8c-1.1,0-2.1,1.4-2.4,3.1C351.8,103.5,353.1,102.8,353.1,101.5z"/>
	<path class="st1" d="M355,107.4l1.5-5.8c0.1-0.5,0.1-0.6-0.2-0.7l-0.9-0.1l0.1-0.4l2.6-0.4l0.1,0.1l-0.9,2.9h0c0.9-1.7,2.2-3,3.6-3
		c1.2,0,1.3,1,1,2.1l-1.1,3.6c-0.1,0.4-0.2,0.8,0.1,0.8c0.4,0,1-1,1.3-1.5l0.3,0.3c-0.5,1.1-1.3,2-2.4,2c-0.8,0-1-0.6-0.7-1.4
		l1.2-4.1c0.2-0.5,0-1-0.5-1c-1.1,0-2.4,2.1-2.9,3.3c-0.4,0.9-0.6,1.6-1.1,3L355,107.4z"/>
	<path class="st1" d="M363.5,107.4l2.2-9.3c0.1-0.5,0.1-0.7-0.3-0.7l-0.8-0.1l0.1-0.3l2.6-0.3l0.1,0.1l-2.5,10.5L363.5,107.4z
		 M370.4,105.4c-0.5,1.2-1.2,2-2.1,2c-0.7,0-1-0.4-1.4-1.3c-0.4-0.9-0.8-1.8-1-2.6c0.7-0.8,2.9-3.3,4.2-3.3c0.5,0,0.7,0.2,0.7,0.5
		c0,0.3-0.4,0.9-0.7,0.9c-0.1,0-0.2,0-0.3-0.1c-0.2-0.1-0.4-0.2-0.6-0.2c-0.6,0-1.7,1.1-2.1,1.6c0.3,0.9,0.6,1.8,1.1,2.7
		c0.3,0.7,0.6,0.9,0.8,0.9c0.2,0,0.8-0.5,1.2-1.3L370.4,105.4z"/>
	<path class="st1" d="M374.3,103.2l-0.2,0.9h-3.6l0.2-0.9H374.3z"/>
	<path class="st1" d="M378.4,100.1c1.3,0,1.7,0.8,1.7,1.2c0,0.4-0.4,0.6-0.6,0.6c-0.2,0-0.3-0.1-0.4-0.3c-0.3-0.6-0.6-1-1.1-1
		c-0.5,0-0.9,0.4-0.9,0.9c0,0.5,0.1,0.8,1,1.5c1,0.8,1.4,1.2,1.4,2.1c0,1.1-1,2.2-2.6,2.2c-1.4,0-2-0.8-2-1.4c0-0.3,0.3-0.7,0.7-0.7
		c0.2,0,0.3,0.1,0.4,0.4c0.2,0.7,0.8,1.1,1.3,1.1c0.5,0,1-0.3,1-1c0-0.5-0.3-1-1-1.6c-0.7-0.6-1.3-1.1-1.3-1.9
		C376,101.1,376.9,100.1,378.4,100.1L378.4,100.1z"/>
	<path class="st1" d="M383.7,100.9l-1.2,5.1c-0.1,0.3-0.1,0.6,0.2,0.6c0.4,0,1.2-0.9,1.5-1.5l0.3,0.3c-0.6,1.1-1.5,2-2.6,2
		c-0.7,0-0.9-0.6-0.7-1.4l1.3-5.1h-1.2l0.2-0.6h1.1l0.3-1.3l1.3-0.8l0.2,0.1l-0.5,1.9h1.7l-0.2,0.6H383.7z"/>
	<path class="st1" d="M389.6,100.1c1.1,0,2.5,0.6,2.5,2.5c0,0.8-0.2,1.9-0.9,3c-0.7,1-1.6,1.8-3.2,1.8c-1.8,0-2.6-1.1-2.6-2.6
		C385.5,103.5,386.3,100.1,389.6,100.1L389.6,100.1z M389.6,100.6c-1.8,0-2.7,3.3-2.7,4.8c0,1,0.4,1.5,1.2,1.5
		c1.9,0,2.6-3.8,2.6-4.8C390.8,101.3,390.5,100.6,389.6,100.6L389.6,100.6z"/>
	<path class="st1" d="M394.9,106.4c-0.6,2.7-1.6,4.4-3.1,4.4c-0.8,0-1.2-0.4-1.3-0.8c0-0.4,0.4-0.8,0.7-0.8c0.2,0,0.3,0.2,0.4,0.3
		c0.4,0.6,0.6,0.7,0.8,0.7c0.2,0,0.5-0.4,0.7-1.5c0.4-1.8,1.2-5.5,1.6-7.7h-1.2l0.1-0.6h1.2l0.1-0.4c0.4-1.6,1.4-3.1,3.5-3.1
		c1,0,1.6,0.5,1.9,0.8c0.4-0.4,1.1-0.9,2-0.9c0.9,0,1.5,0.5,1.5,1.1c0,0.4-0.4,0.6-0.7,0.6c-0.2,0-0.3-0.1-0.4-0.2
		c-0.3-0.7-0.6-1-0.9-1c-0.4,0-0.8,0.6-1,2l-0.3,1.2h1.6l-0.1,0.6h-1.6l-1.1,5.2c-0.6,2.7-1.6,4.4-3.1,4.4c-0.8,0-1.2-0.4-1.3-0.8
		c0-0.4,0.4-0.8,0.7-0.8c0.2,0,0.3,0.1,0.4,0.3c0.4,0.6,0.6,0.6,0.8,0.6c0.2,0,0.5-0.4,0.7-1.5c0.3-1.6,1.1-5.4,1.5-7.4h-2.9
		L394.9,106.4z M399.1,100.3c0.2-0.8,0.3-1.1,0.6-1.6c-0.1-0.7-0.5-1.4-1.4-1.4c-1.5,0-1.8,1.8-2.1,3H399.1z"/>
	<path class="st1" d="M402.1,107.4c-0.5,0-0.8-0.4-0.8-0.9c0-0.6,0.4-1,0.9-1c0.6,0,0.8,0.4,0.8,0.9
		C403,107,402.7,107.4,402.1,107.4L402.1,107.4z"/>
	<path class="st1" d="M410.5,105.3c-1,1.7-2.2,2.1-3.3,2.1c-1,0-2-0.6-2-2.3c0-2.3,1.6-5,4.1-5c1.1,0,1.8,0.6,1.8,1.3
		c0,0.5-0.5,0.8-0.9,0.8c-0.3,0-0.4-0.2-0.4-0.5c-0.1-0.8-0.4-1.1-0.8-1.1c-1.3,0-2.3,2.4-2.3,4.2c0,1,0.2,1.8,1.2,1.8
		c0.9,0,1.8-0.9,2.4-1.7L410.5,105.3z"/>
	<path class="st1" d="M418.9,105.4c-0.5,1.1-1.3,2-2.3,2c-0.8,0-1-0.6-0.8-1.6l1.2-4c0.2-0.6,0-1-0.4-1c-1.2,0-2.5,2.1-3,3.3
		c-0.3,0.9-0.6,1.6-1,3l-1.3,0.2l2.1-9.3c0.1-0.6,0.1-0.6-0.3-0.7l-0.8-0.1l0.1-0.3l2.6-0.3l0.1,0.1l-1.6,6.4h0c0.9-1.7,2.4-3,3.7-3
		c1.1,0,1.3,1,1,2.1l-1.1,3.6c-0.1,0.5-0.1,0.8,0.1,0.8c0.4,0,1-1,1.3-1.5L418.9,105.4z"/>
	<path class="st1" d="M257.2,119.3l-1,4.4c-0.3,1.3-0.1,1.9,0.4,1.9c1.2,0,2.8-2.4,2.8-4.6c0-0.6,0-1.1-0.2-1.6
		c0.3-0.2,0.7-0.3,1-0.3c0.1,0,0.4,0.5,0.4,1.1c0,0.8-0.6,2.4-1.5,3.7c-0.9,1.3-2,2.4-3.2,2.4c-0.9,0-1.2-0.6-1.2-1.4
		c0-0.4,0.1-0.9,0.2-1.4l0,0c-0.9,1.7-2,2.8-3.3,2.8c-0.8,0-1.3-0.6-1-1.9l0.9-3.8c0.1-0.5,0.1-0.6-0.2-0.7l-0.9-0.1l0.1-0.3
		l2.5-0.4l0.1,0.1l-1.2,5.3c-0.2,0.8,0,1.1,0.4,1.1c0.6,0,1.3-0.8,1.8-1.7c0.7-1,1.2-2.6,1.7-4.6L257.2,119.3z"/>
	<path class="st1" d="M268.4,119.3l-1,4.4c-0.3,1.3-0.1,1.9,0.4,1.9c1.2,0,2.8-2.4,2.8-4.6c0-0.6,0-1.1-0.2-1.6
		c0.3-0.2,0.7-0.3,1-0.3c0.1,0,0.4,0.5,0.4,1.1c0,0.8-0.6,2.4-1.5,3.7c-0.9,1.3-2,2.4-3.2,2.4c-0.9,0-1.2-0.6-1.2-1.4
		c0-0.4,0.1-0.9,0.2-1.4l0,0c-0.9,1.7-2,2.8-3.3,2.8c-0.8,0-1.3-0.6-1-1.9l0.9-3.8c0.1-0.5,0.1-0.6-0.2-0.7l-0.9-0.1l0.1-0.3
		l2.5-0.4l0.1,0.1l-1.2,5.3c-0.2,0.8,0,1.1,0.4,1.1c0.6,0,1.3-0.8,1.8-1.7c0.7-1,1.2-2.6,1.7-4.6L268.4,119.3z"/>
	<path class="st1" d="M279.6,119.3l-1,4.4c-0.3,1.3-0.1,1.9,0.4,1.9c1.2,0,2.8-2.4,2.8-4.6c0-0.6,0-1.1-0.2-1.6
		c0.3-0.2,0.7-0.3,1-0.3c0.1,0,0.4,0.5,0.4,1.1c0,0.8-0.6,2.4-1.5,3.7c-0.9,1.3-2,2.4-3.2,2.4c-0.9,0-1.2-0.6-1.2-1.4
		c0-0.4,0.1-0.9,0.2-1.4l0,0c-0.9,1.7-2,2.8-3.3,2.8c-0.8,0-1.3-0.6-1-1.9l0.9-3.8c0.1-0.5,0.1-0.6-0.2-0.7l-0.9-0.1l0.1-0.3
		l2.5-0.4l0.1,0.1l-1.2,5.3c-0.2,0.8,0,1.1,0.4,1.1c0.6,0,1.3-0.8,1.8-1.7c0.7-1,1.2-2.6,1.7-4.6L279.6,119.3z"/>
	<path class="st1" d="M283.2,126.4c-0.5,0-0.8-0.4-0.8-0.9c0-0.6,0.4-1,0.9-1c0.6,0,0.8,0.4,0.8,0.9
		C284.2,126,283.9,126.4,283.2,126.4L283.2,126.4z"/>
	<path class="st1" d="M294.3,115.7L294.3,115.7l-2.2,9.2c-0.1,0.4-0.1,0.8,0.1,0.8c0.4,0,1-1,1.3-1.5l0.4,0.3c-0.5,1.1-1.3,2-2.4,2
		c-0.7,0-0.9-0.6-0.7-1.6c0.1-0.5,0.3-1,0.4-1.5h0c-0.8,1.5-2,3.1-3.7,3.1c-1.2,0-1.4-1-1.4-1.9c0-1.7,1.5-5.4,4.8-5.4
		c0.5,0,0.9,0.1,1.2,0.3l0.6-2.4c0.1-0.5,0.1-0.5-0.3-0.6l-0.8-0.1l0.1-0.3L294.3,115.7z M287.6,124.6c0,0.6,0.2,1,0.7,1
		c1.4,0,3.1-3.2,3.5-4.6c0.1-0.4,0.2-0.7,0.3-1.1c-0.2-0.1-0.5-0.3-0.9-0.3C288.9,119.7,287.6,123.1,287.6,124.6L287.6,124.6z"/>
	<path class="st1" d="M300.2,124.3c-1,1.6-2.2,2.1-3.4,2.1c-0.9,0-2.1-0.4-2.1-2.3c0-1.2,0.4-2.5,1.2-3.4c0.8-1,1.8-1.5,3-1.5
		c1.2,0,1.7,0.7,1.7,1.4c0,1.9-3,2.5-4.5,2.7c0,0.1,0,0.5,0,0.5c0,1.1,0.3,1.9,1.3,1.9c1.1,0,1.9-0.9,2.4-1.6L300.2,124.3z
		 M299.3,120.5c0-0.5-0.3-0.8-0.8-0.8c-1.1,0-2.1,1.4-2.4,3.1C298,122.5,299.3,121.8,299.3,120.5z"/>
	<path class="st1" d="M301.3,126.4l1.5-5.8c0.1-0.5,0.1-0.6-0.2-0.7l-0.9-0.1l0.1-0.4l2.6-0.4l0.1,0.1l-0.9,2.9h0
		c0.9-1.7,2.2-3,3.6-3c1.2,0,1.3,1,1,2.1l-1.1,3.6c-0.1,0.4-0.2,0.8,0.1,0.8c0.4,0,1-1,1.3-1.5l0.3,0.3c-0.5,1.1-1.3,2-2.4,2
		c-0.8,0-1-0.6-0.7-1.4l1.2-4.1c0.2-0.5,0-1-0.5-1c-1.1,0-2.4,2.1-2.9,3.3c-0.4,0.9-0.6,1.6-1.1,3L301.3,126.4z"/>
	<path class="st1" d="M309.8,126.4l2.2-9.3c0.1-0.5,0.1-0.7-0.3-0.7l-0.8-0.1l0.1-0.3l2.6-0.3l0.1,0.1l-2.5,10.5L309.8,126.4z
		 M316.7,124.4c-0.5,1.2-1.2,2-2.1,2c-0.7,0-1-0.4-1.4-1.3c-0.4-0.9-0.8-1.8-1-2.6c0.7-0.8,2.9-3.3,4.2-3.3c0.5,0,0.7,0.2,0.7,0.5
		c0,0.3-0.4,0.9-0.7,0.9c-0.1,0-0.2,0-0.3-0.1c-0.2-0.1-0.4-0.2-0.6-0.2c-0.6,0-1.7,1.1-2.1,1.6c0.3,0.9,0.6,1.8,1.1,2.7
		c0.3,0.7,0.6,0.9,0.8,0.9c0.2,0,0.8-0.5,1.2-1.3L316.7,124.4z"/>
	<path class="st1" d="M320.6,122.2l-0.2,0.9h-3.6l0.2-0.9H320.6z"/>
	<path class="st1" d="M324.6,119.1c1.3,0,1.7,0.8,1.7,1.2c0,0.4-0.4,0.6-0.6,0.6c-0.2,0-0.3-0.1-0.4-0.3c-0.3-0.6-0.6-1-1.1-1
		c-0.5,0-0.9,0.4-0.9,0.9c0,0.5,0.1,0.8,1,1.5c1,0.8,1.4,1.2,1.4,2.1c0,1.1-1,2.2-2.6,2.2c-1.4,0-2-0.8-2-1.4c0-0.3,0.3-0.7,0.7-0.7
		c0.2,0,0.3,0.1,0.4,0.4c0.2,0.7,0.8,1.1,1.3,1.1c0.5,0,1-0.3,1-1c0-0.5-0.3-1-1-1.6c-0.7-0.6-1.3-1.1-1.3-1.9
		C322.2,120.1,323.1,119.1,324.6,119.1L324.6,119.1z"/>
	<path class="st1" d="M329.9,119.9l-1.2,5.1c-0.1,0.3-0.1,0.6,0.2,0.6c0.4,0,1.2-0.9,1.5-1.5l0.3,0.3c-0.6,1.1-1.5,2-2.6,2
		c-0.7,0-0.9-0.6-0.7-1.4l1.3-5.1h-1.2l0.2-0.6h1.1l0.3-1.3l1.3-0.8l0.2,0.1l-0.5,1.9h1.7l-0.2,0.6H329.9z"/>
	<path class="st1" d="M335.9,119.1c1.1,0,2.5,0.6,2.5,2.5c0,0.8-0.2,1.9-0.9,3c-0.7,1-1.6,1.8-3.2,1.8c-1.8,0-2.6-1.1-2.6-2.6
		C331.7,122.5,332.6,119.1,335.9,119.1L335.9,119.1z M335.9,119.6c-1.8,0-2.7,3.3-2.7,4.8c0,1,0.4,1.5,1.2,1.5
		c1.9,0,2.6-3.8,2.6-4.8C337,120.3,336.7,119.6,335.9,119.6L335.9,119.6z"/>
	<path class="st1" d="M341.2,125.4c-0.6,2.7-1.6,4.4-3.1,4.4c-0.8,0-1.2-0.4-1.3-0.8c0-0.4,0.4-0.8,0.7-0.8c0.2,0,0.3,0.2,0.4,0.3
		c0.4,0.6,0.6,0.7,0.8,0.7c0.2,0,0.5-0.4,0.7-1.5c0.4-1.8,1.2-5.5,1.6-7.7h-1.2l0.1-0.6h1.2l0.1-0.4c0.4-1.6,1.4-3.1,3.5-3.1
		c1,0,1.6,0.5,1.9,0.8c0.4-0.4,1.1-0.9,2-0.9c0.9,0,1.5,0.5,1.5,1.1c0,0.4-0.4,0.6-0.7,0.6c-0.2,0-0.3-0.1-0.4-0.2
		c-0.3-0.7-0.6-1-0.9-1c-0.4,0-0.8,0.6-1,2l-0.3,1.2h1.6l-0.1,0.6h-1.6l-1.1,5.2c-0.6,2.7-1.6,4.4-3.1,4.4c-0.8,0-1.2-0.4-1.3-0.8
		c0-0.4,0.4-0.7,0.7-0.7c0.2,0,0.3,0.1,0.4,0.3c0.4,0.6,0.6,0.6,0.8,0.6c0.2,0,0.5-0.4,0.7-1.5c0.3-1.6,1.1-5.4,1.5-7.4h-2.9
		L341.2,125.4z M345.3,119.3c0.2-0.8,0.3-1.1,0.6-1.6c-0.1-0.7-0.5-1.4-1.4-1.4c-1.5,0-1.8,1.8-2.1,3H345.3z"/>
	<path class="st1" d="M348.3,126.4c-0.5,0-0.8-0.4-0.8-0.9c0-0.6,0.4-1,0.9-1c0.6,0,0.8,0.4,0.8,0.9
		C349.3,126,348.9,126.4,348.3,126.4L348.3,126.4z"/>
	<path class="st1" d="M356.8,124.3c-1,1.7-2.2,2.1-3.3,2.1c-1,0-2-0.6-2-2.3c0-2.3,1.6-5,4.1-5c1.1,0,1.8,0.6,1.8,1.3
		c0,0.5-0.5,0.8-0.9,0.8c-0.3,0-0.4-0.2-0.4-0.5c-0.1-0.8-0.4-1.1-0.8-1.1c-1.3,0-2.3,2.4-2.3,4.2c0,1,0.2,1.8,1.2,1.8
		c0.9,0,1.8-0.9,2.4-1.7L356.8,124.3z"/>
	<path class="st1" d="M365.2,124.4c-0.5,1.1-1.3,2-2.3,2c-0.8,0-1-0.6-0.8-1.6l1.2-4c0.2-0.6,0-1-0.4-1c-1.2,0-2.5,2.1-3,3.3
		c-0.3,0.9-0.6,1.6-1,3l-1.3,0.2l2.1-9.3c0.1-0.6,0.1-0.6-0.3-0.7l-0.8-0.1l0.1-0.3l2.6-0.3l0.1,0.1l-1.6,6.4h0c0.9-1.7,2.4-3,3.7-3
		c1.1,0,1.3,1,1,2.1l-1.1,3.6c-0.1,0.5-0.1,0.8,0.1,0.8c0.4,0,1-1,1.3-1.5L365.2,124.4z"/>
</g>
</svg>
