<?xml version="1.0" encoding="utf-8"?>
<!-- Generator: Adobe Illustrator 19.1.0, SVG Export Plug-In . SVG Version: 6.00 Build 0)  -->
<svg version="1.1" id="Ebene_1" xmlns="http://www.w3.org/2000/svg" xmlns:xlink="http://www.w3.org/1999/xlink" x="0px" y="0px"
	 viewBox="0 0 586.5 223.9" style="enable-background:new 0 0 586.5 223.9;" xml:space="preserve">
<style type="text/css">
	.st0{fill:#C18B1A;}
</style>
<g>
	<path class="st0" d="M22.8,104.2V19.5H0V2.3h65.5v17.3H42.6v84.6H22.8z"/>
	<path class="st0" d="M141.3,41.7V2.3h19.8v101.9h-19.8V58.9H98.2v45.2H78.3V2.3h19.8v39.4H141.3z"/>
	<path class="st0" d="M204.3,19.5v22.6h35.1v17.3h-35.1v27.5h36.5v17.3h-56.4V2.3h56.4v17.3H204.3z"/>
	<path class="st0" d="M273.5,0.5h13.6l27.8,66.6l28.9-66.6h13.7l17,103.7h-20l-9.2-62.8l-28,64.1h-5.5l-27-64.1l-10.2,62.8h-20
		L273.5,0.5z"/>
	<path class="st0" d="M412.5,19.5v22.6h35.1v17.3h-35.1v27.5H449v17.3h-56.4V2.3H449v17.3H412.5z"/>
	<path class="st0" d="M468.2,0h13.7l62,70.9V2.3h19.8v103.9h-13.7l-62-70.9v68.9h-19.8V0z"/>
</g>
<g>
	<g>
		<path class="st0" d="M563.8,119.7v84.6h22.8v17.3H521v-17.3h22.9v-84.6H563.8z"/>
		<path class="st0" d="M445.3,182.2v39.4h-19.8V119.7h19.8v45.2h43.1v-45.2h19.9v101.9h-19.9v-39.4H445.3z"/>
		<path class="st0" d="M382.2,204.3v-22.6h-35.1v-17.3h35.1V137h-36.5v-17.3h56.4v101.9h-56.4v-17.3H382.2z"/>
		<path class="st0" d="M313,223.4h-13.6l-27.8-66.6l-28.9,66.6H229l-17-103.7h20l9.2,62.8l28-64.1h5.5l27,64.1l10.2-62.8h20
			L313,223.4z"/>
		<path class="st0" d="M174.1,204.3v-22.6h-35.1v-17.3h35.1V137h-36.5v-17.3h56.4v101.9h-56.4v-17.3H174.1z"/>
		<path class="st0" d="M118.3,223.9h-13.7l-62-70.9v68.6H22.7V117.7h13.7l62,70.9v-68.9h19.8V223.9z"/>
	</g>
</g>
</svg>
