<?xml version="1.0" encoding="utf-8"?>
<!-- Generator: Adobe Illustrator 19.1.0, SVG Export Plug-In . SVG Version: 6.00 Build 0)  -->
<svg version="1.1" id="Ebene_1" xmlns="http://www.w3.org/2000/svg" xmlns:xlink="http://www.w3.org/1999/xlink" x="0px" y="0px"
	 viewBox="0 0 586.8 225.4" style="enable-background:new 0 0 586.8 225.4;" xml:space="preserve">
<style type="text/css">
	.st0{fill:#C18B1A;}
</style>
<g>
	<path class="st0" d="M15.8,72.7c0,8.3,0.5,10.9,2.5,14.6c2.7,4.6,8,7.4,14.2,7.4s11.5-2.8,14.2-7.4c2.1-3.6,2.5-6.3,2.5-14.6V26.3
		h15.8v49.5c0,9.6-1.8,16.1-6,21.6c-5.6,7.3-15.4,11.7-26.6,11.7c-11.2,0-21-4.4-26.6-11.7c-4.1-5.5-6-12-6-21.6V26.3h15.8V72.7z
		 M28.5,8.7c0,4.7-4,8.7-8.7,8.7c-4.9,0-8.7-3.9-8.7-8.9C11,4,15.1,0,19.8,0S28.5,4,28.5,8.7z M54,8.7c0,4.9-3.9,8.7-8.7,8.7
		c-4.7,0-8.7-4-8.7-8.9c0-4.5,4.1-8.6,8.7-8.6C50.1,0,54,4,54,8.7z"/>
	<path class="st0" d="M83.6,26.3h20c9.3,0,15.7,1.6,19.8,4.9c4.5,3.5,7.3,9.8,7.3,16.5c0,4.4-1.1,8.7-3,11.5
		c-1.3,1.8-2.7,2.9-5.8,4.9c5.5,1.2,8,2.4,10.6,5.1c3.6,3.6,5.8,9.3,5.8,15.3c0,6.4-2.5,12.5-7.2,16.6c-4.7,4.2-11.2,6.2-20.2,6.2
		H83.6V26.3z M103.9,60.1c8.1,0,12.3-3.5,12.3-10.6c0-6.9-4.1-10.4-12-10.4h-4.7v21H103.9z M106.2,94.6c10.7,0,15.8-3.6,15.8-11.2
		c0-3.9-1.7-7.2-4.7-9c-2.8-1.8-5.3-2.3-11.9-2.3h-6v22.5H106.2z"/>
	<path class="st0" d="M168.6,40.1v18h27.9v13.7h-27.9v21.9h29v13.7h-44.8v-81h44.8v13.7H168.6z"/>
	<path class="st0" d="M272.1,107.3h-19.4l-21.9-32.5h-2.1v32.5h-15.8v-81h23.4c9,0,16,1.9,20.8,5.7c4.9,4,7.9,10.9,7.9,18.2
		c0,12.5-6.4,20.5-18.5,23L272.1,107.3z M233.3,63.6c10.1,0,15.4-4.2,15.4-12.4c0-8-5.1-12.1-15.2-12.1h-4.9v24.5H233.3z"/>
	<path class="st0" d="M316.5,24.9h10.8l22.1,52.9l23-52.9h10.9l13.5,82.4h-15.9l-7.3-49.9l-22.2,51H347l-21.5-51l-8.1,49.9h-15.9
		L316.5,24.9z"/>
	<path class="st0" d="M429.4,107.3h-15.8v-81h15.8V107.3z"/>
	<path class="st0" d="M506.4,48.1c-6.6-6.6-12.1-9.1-19.8-9.1c-15.1,0-26.5,12.1-26.5,28.2c0,15.9,11.3,27.6,26.8,27.6
		c7.8,0,13-2.4,19.4-8.9v18.6c-7.3,3.4-12.9,4.7-19.9,4.7c-23.8,0-42.6-18.5-42.6-41.9c0-23.8,18.9-42.7,42.7-42.7
		c7.3,0,12.7,1.3,19.8,5V48.1z"/>
	<path class="st0" d="M570.3,57.7V26.3h15.8v81h-15.8V71.4h-34.2v35.9h-15.8v-81h15.8v31.3H570.3z"/>
</g>
<g>
	<g>
		<path class="st0" d="M571,152.7c0-8.3-0.5-10.9-2.5-14.6c-2.7-4.6-8-7.4-14.2-7.4c-6.2,0-11.5,2.8-14.2,7.4
			c-2.1,3.6-2.5,6.3-2.5,14.6v46.4h-15.8v-49.5c0-9.6,1.8-16.1,6-21.6c5.6-7.3,15.4-11.7,26.6-11.7c11.2,0,21,4.4,26.6,11.7
			c4.1,5.5,6,12,6,21.6v49.5H571V152.7z M532.8,216.7c0-4.9,3.9-8.7,8.7-8.7c4.7,0,8.7,4,8.7,8.9c0,4.5-4.1,8.6-8.7,8.6
			C536.6,225.4,532.8,221.4,532.8,216.7z M558.2,216.7c0-4.7,4-8.7,8.7-8.7c4.9,0,8.7,3.9,8.7,8.9c0,4.6-4,8.6-8.7,8.6
			S558.2,221.4,558.2,216.7z"/>
		<path class="st0" d="M503.1,199.1h-20c-9.4,0-15.7-1.6-19.8-4.9c-4.5-3.5-7.3-9.8-7.3-16.5c0-4.4,1.1-8.7,3-11.5
			c1.3-1.8,2.7-2.9,5.8-4.9c-5.5-1.2-8-2.4-10.6-5.1c-3.6-3.6-5.8-9.3-5.8-15.3c0-6.4,2.5-12.5,7.2-16.6c4.7-4.2,11.2-6.2,20.1-6.2
			h27.3V199.1z M480.6,130.8c-10.7,0-15.8,3.6-15.8,11.2c0,3.9,1.7,7.2,4.7,9c2.8,1.8,5.3,2.3,11.9,2.3h6v-22.5H480.6z M482.9,165.3
			c-8.1,0-12.3,3.5-12.3,10.6c0,6.9,4.1,10.4,12,10.4h4.7v-21H482.9z"/>
		<path class="st0" d="M418.2,185.4v-18h-27.9v-13.7h27.9v-21.9h-29v-13.7h44.8v81h-44.8v-13.7H418.2z"/>
		<path class="st0" d="M309.9,118.1h19.4l21.9,32.5h2.1v-32.5H369v81h-23.4c-9,0-16-1.9-20.8-5.7c-4.9-4-7.9-10.9-7.9-18.2
			c0-12.5,6.4-20.5,18.5-23L309.9,118.1z M348.6,161.8c-10.1,0-15.4,4.2-15.4,12.4c0,8,5.1,12.1,15.2,12.1h4.9v-24.5H348.6z"/>
		<path class="st0" d="M267.9,200.5h-10.8L235,147.6l-23,52.9h-10.9l-13.5-82.4h15.9l7.3,49.9l22.2-51h4.4l21.5,51l8.1-49.9h15.9
			L267.9,200.5z"/>
		<path class="st0" d="M155,118.1h15.8v81H155V118.1z"/>
		<path class="st0" d="M80.3,177.3c6.6,6.6,12.1,9.1,19.8,9.1c15.1,0,26.5-12.1,26.5-28.2c0-15.9-11.3-27.6-26.8-27.6
			c-7.8,0-13,2.4-19.4,8.9V121c7.3-3.4,12.9-4.7,19.9-4.7c23.8,0,42.6,18.5,42.6,41.9c0,23.8-18.9,42.7-42.7,42.7
			c-7.3,0-12.7-1.3-19.8-5V177.3z"/>
		<path class="st0" d="M16.3,167.7v31.3H0.5v-81h15.8V154h34.2v-35.9h15.8v81H50.6v-31.3H16.3z"/>
	</g>
</g>
</svg>
